/* XPM */
static char *Red_Door_Back01686652169[] = {
/* columns rows colors chars-per-pixel */
"64 64 17 1 ",
"  c black",
". c #141413",
"X c #151514",
"o c #2F1C17",
"O c #28221F",
"+ c #292220",
"@ c #382B2F",
"# c #621823",
"$ c #792429",
"% c #693837",
"& c #383F40",
"* c #464D4F",
"= c #536265",
"- c #62797E",
"; c #911C1B",
": c #AE260B",
"> c #C02200",
/* pixels */
"**&*&**************************;;;; .$$$;&****&*****************",
"&&&&&&&&&&&&&&&&&&&&&&&&&&&&&&&$$$; .$$$$&&&&&&&&&&&&&&&&&&&&&&&",
"&&&&&&&&&&&&&&&&&&&&&&&&&&&&&&&$$$; .#$$$&&&&&&&&&&&&&&&&&&&&&&&",
"&&&&&@@ooo@@@@o@oooooooooooo&&&$$$; .$$$$&&&&@@@@@@@o@oooooo&&&&",
"&&&&&&&&&&&&&&&&&&&&&&&&&&&@o&&$$$; .#$$$&&&&&&&&&&&&&&&&&&@o&&&",
"&&&*&&&&&&&&&&&&&&&&&&&&&&&&o&&$$$; .#$$$&&*&&&&&&&&&&&&&&&&o&&&",
"&&&*&&&&&&&&&&&&&&&&&&&&&&&&o&&$$$; .#$$$&&*&&&&&&&&&&&&&&&&o&&&",
"***=************************@**;;;>.O$;;;**=****************@***",
"&&&*&&&&&&&&&&&&&&&&&&&&&&&&o&&$$$; .#$$$&&*&&&&&&&&&&&&&&&&o&&&",
"***=************************&**;;;>.O$;;;**=****************@***",
"***-************************&**;;;> .$;;;**-****************@***",
"***=***************************;;;> .$;;;**=****************@***",
"***-*************=----=-===****;;;>.O$;;;**-****************@***",
"***-************=**************;;;>.O$;;;**-****************@***",
"***-***********=***************;;;>.O$;;;**-****************@***",
"***-**********=***%;;;;;;;;;;;;;;;:..$;;;**-****************&***",
"***-*********=***;;;;;;;;;;;;;;;;;>.O$;;;**-****************&***",
"***-=*******=***%;;;;;;;;;;;;;;;;;:..;;;;**-=*******************",
"****-------=****;;;;;;;:;:;::::::::.O$;;;***------=-=-=====*****",
"****************;;;;$ ...O.OOOOOOOOOO;;;;***********************",
"****************;;;; XXX+X+X++++++++$;;;;***********************",
"*****&&&&@@@@***;;;: .#;;;;;;;;;;;;;;;;;;****&&&&&&&@&@@@@@@****",
"*************@**;;;> .;;;;;;;;;;;;;;;;;;%******************&@***",
"***=*********@**;;;> .$;;;;;;;;;;;;;;;;;***=****************@***",
"***=*********@**;;;> .;;;;;;;;;;;;;;;;%***-*****************@***",
"***=*********@**;;;> .$;;;***************=******************@***",
"***-*********@**;;;> .$;;;**************=*******************&***",
"***=*********@**;;;> .$;;;****&&&@@@@@@&********************@***",
"***-*********@**;;;> .$;;;**********************************&***",
"***-*********@**;;;: .$;;;**=*******************************@***",
"***-*********&**;;;>..$;;;**=*******************************&***",
"***-*********@**;;;:O.$;;;**=*******************************@***",
"***=*********&**;;;:.O$;;;**=*******************************@***",
"***-*********@**;;;:O.$;;;**-*******************************@***",
"***-*********&**;;;:.O$;;;**-*******************************@***",
"***-*********&**;;;:O.$;;;**-=******************************@***",
"***-*********&**;;;:OO;;;;***------------------*************@***",
"***-*********&**;;;:O.$;;;*********************-************&***",
"***-*********&**;;;:OO;;;;**********************-***********@***",
"***-*********&**;;;;O.$;;;;;;;;;;;;;;;;;;;;;;%***-**********&***",
"***-*********&**;;;:OO;;;;;;;;;;;;;;;;;;;;;;;;;***-*********&***",
"***-=***********;;;;O.;;;;;;;;;;;;;;;;;;;;;;;;;%***-************",
"****-----===****;;;:OO#;;:;:;::::::::::::;;;;;;;****-----==*****",
"****************;;;;OOOO.O.O.O.O.O.OOOOOO..$;;;;****************",
"****************;;;;$OOOO.O.O.O.O.O.OOOOO. .;;;;****************",
"*****&&&&@@@****;;;;;;;;;;;;;;;;;;;;;;;;;; .;;;;****&&&&@@@@****",
"************@***%;;;;;;;;;;;;;;;;;;;;;;;;; .$;;;***********&@***",
"***=*********@***;;;;;;;;;;;;;;;;;;;;;;;;: .;;;;**=*********@***",
"***=**********@***%;;;;;;;;;;;;;;;;;;;;;;; .$;;;**=*********@***",
"***=***********@**********************;;;: .$;;;**=*********@***",
"***-************&*********************;;;> .$;;;**-*********&***",
"***=*************&&&&&&@&@@@@@@@@@@***;;;>.O$;;;**-*********@***",
"***-******************************&@**;;;> .$;;;**-*********&***",
"***-*******************************@**;;;:.O$;;;**-*********&***",
"***-*******************************@**;;;> .$;;;**-*********&***",
"***-*******************************@**;;;;.O#;;;**=*********@***",
"***-*******************************&**;;;:.O$;;;**-*********&***",
"***-*******************************&**;;;;.O#;;;**-*********&***",
"***-*******************************&**;;;;..#;;;**-*********&***",
"***-=*********************************;;;;.O#;;;**-=************",
"****----------------=-=-----======****;;;;..#;;;***----====*****",
"**************************************;;;;.O#;;;****************",
"**************************************;;;;OO#;;;****************",
"@@@@@o@o@oooooo@o@o@@o@o@@@@@@@@@@.@....o....ooo@@@@@o@o@oooooo@"
};
