/* XPM */
static char *Red_Door_Back61686652170[] = {
/* columns rows colors chars-per-pixel */
"64 64 16 1 ",
"  c None",
". c black",
"X c #141413",
"o c #2F1C17",
"O c #28221F",
"+ c #382B2F",
"@ c #621823",
"# c #792429",
"$ c #693837",
"% c #383F40",
"& c #464D4F",
"* c #536265",
"= c #62797E",
"- c #911C1B",
"; c #AE260B",
": c #C02200",
/* pixels */
"&&&&&&----.                                                  X##",
"%%%%%%###-.                                                  X##",
"%%%%%%###-.                                                  X@#",
"ooo%%%###-.                                                  X##",
"%%+o%%###-.                                                  X@#",
"%%%o%%###-.                                                  X@#",
"%%%o%%###-.                                                  X@#",
"&&&+&&---:X                                                  O#-",
"%%%o%%###-.                                                  X@#",
"&&&%&&---:X                                                  O#-",
"&&&%&&---:.                                                  X#-",
"&&&&&&---:.                                                  X#-",
"**&&&&---:X                                                  O#-",
"&&&&&&---:X                                                  O#-",
"&&&&&&---:X                                                  O#-",
"---------;X                                                  X#-",
"---------:X                                                  O#-",
"---------;X                                                  X--",
";-;;;;;;;;X                                                  O#-",
"OXOOOOOOOOO                                                  O--",
"                                              XXXOXOXOOOOOOOO#--",
"                                              X@----------------",
"                                              X-----------------",
"                                              X#----------------",
"                                              X----------------$",
"                                              X#---&&&&&&&&&&&&&",
"                                              X#---&&&&&&&&&&&&&",
"                                              X#---&&&&%%%++++++",
"                                              X#---&&&&&&&&&&&&&",
"                                              X#---&&*&&&&&&&&&&",
"                                              X#---&&*&&&&&&&&&&",
"                                              X#---&&*&&&&&&&&&&",
"                                              O#---&&*&&&&&&&&&&",
"                                              X#---&&=&&&&&&&&&&",
"                                              O#---&&=&&&&&&&&&&",
"                                              X#---&&=*&&&&&&&&&",
"                                              O----&&&==========",
"                                              X#---&&&&&&&&&&&&&",
"                                              O----&&&&&&&&&&&&&",
"                                              X#----------------",
"                                              O-----------------",
"                                              X-----------------",
"                                              O@--;-;-;;;;;;;;;;",
"                                              OOOXOXOXOXOXOXOOOO",
"XOXOXOXOXOXOOOOOX.                                              ",
"-----------------.                                              ",
"-----------------.                                              ",
"----------------;.                                              ",
"-----------------.                                              ",
"&&&&&&&&&&&&&---;.                                              ",
"&&&&&&&&&&&&&---:.                                              ",
"++++++++++&&&---:X                                              ",
"&&&&&&&&&%+&&---:.                                              ",
"&&&&&&&&&&+&&---;X                                              ",
"&&&&&&&&&&+&&---:.                                              ",
"&&&&&&&&&&+&&----X                                              ",
"&&&&&&&&&&%&&---;X                                              ",
"&&&&&&&&&&%&&----X                                              ",
"&&&&&&&&&&%&&----X                                              ",
"&&&&&&&&&&&&&----X                                              ",
"===******&&&&----X                                              ",
"&&&&&&&&&&&&&----X                                              ",
"&&&&&&&&&&&&&----O                                              ",
"+++++++++X+XXXXoXX                                              "
};
