/* XPM */
static char *Red_Door_Back11686652169[] = {
/* columns rows colors chars-per-pixel */
"64 64 19 1 ",
"  c None",
". c black",
"X c #141413",
"o c #151514",
"O c #2F1C17",
"+ c #28221F",
"@ c #29231F",
"# c #292220",
"$ c #382B2F",
"% c #621823",
"& c #792429",
"* c #693837",
"= c #383F40",
"- c #464D4F",
"; c #536265",
": c #62797E",
"> c #911C1B",
", c #AE260B",
"< c #C02200",
/* pixels */
"-=-=-------------------------->>>>.  X&&&>=----=----------------",
"==============================&&&>.  X&&&&======================",
"==============================&&&>.  X%&&&======================",
"====$$OOO$$$$O$OOOOOOOOOOOO===&&&>.  X&&&&====$$$$$$$O$OOOOOO===",
"==========================$O==&&&>.  X%&&&==================$O==",
"==-========================O==&&&>.  X%&&&==-================O==",
"==-========================O==&&&>.  X%&&&==-================O==",
"--;------------------------$-->>><X  +&>>>--;----------------$--",
"==-========================O==&&&>.  X%&&&==-================O==",
"--;------------------------=-->>><X  +&>>>--;----------------$--",
"--:------------------------=-->>><.  X&>>>--:----------------$--",
"--;--------------------------->>><.  X&>>>--;----------------$--",
"--:-------------;::::;:;;;---->>><X  +&>>>--:----------------$--",
"--:------------;-------------->>><X  +&>>>--:----------------$--",
"--:-----------;--------------->>><X  +&>>>--:----------------$--",
"--:----------;---*>>>>>>>>>>>>>>>,X  X&>>>--:----------------=--",
"--:---------;--->>>>>>>>>>>>>>>>><X  +&>>>--:----------------=--",
"--:;-------;---*>>>>>>>>>>>>>>>>>,X  X>>>>--:;------------------",
"---:::::::;---->>>>>>>,>,>,,,,,,,,X  +&>>>---::::::;:;:;;;;;----",
"--------------->>>>&.XXX+X+++++++++  +>>>>----------------------",
"--------------->>>>.  ooo#o#o######++&>>>>----------------------",
"----====$$$$--->>>,.  X%>>>>>>>>>>>>>>>>>>----=======$=$$$$$$---",
"------------$-->>><.  X>>>>>>>>>>>>>>>>>>*------------------=$--",
"--;---------$-->>><.  X&>>>>>>>>>>>>>>>>>---;----------------$--",
"--;---------$-->>><.  X>>>>>>>>>>>>>>>>*---:-----------------$--",
"--;---------$-->>><.  X&>>>---------------;------------------$--",
"--:---------$-->>><.  X&>>>--------------;-------------------=--",
"--;---------$-->>><.  X&>>>----===$$$$$$=--------------------$--",
"--:---------$-->>><.  X&>>>----------------------------------=--",
"--:---------$-->>>,.  X&>>>--;-------------------------------$--",
"--:---------=-->>><X  X&>>>--;-------------------------------=--",
"--:---------$-->>>,+  X&>>>--;-------------------------------$--",
"--;---------=-->>>,X  +&>>>--;-------------------------------$--",
"--:---------$-->>>,+  X&>>>--:-------------------------------$--",
"--:---------=-->>>,X  +&>>>--:-------------------------------$--",
"--:---------=-->>>,+  X&>>>--:;------------------------------$--",
"--:---------=-->>>,+  +>>>>---::::::::::::::::::-------------$--",
"--:---------=-->>>,+  X&>>>---------------------:------------=--",
"--:---------=-->>>,+  +>>>>----------------------:-----------$--",
"--:---------=-->>>>+  X&>>>>>>>>>>>>>>>>>>>>>>*---:----------=--",
"--:---------=-->>>,+  +>>>>>>>>>>>>>>>>>>>>>>>>>---:---------=--",
"--:;----------->>>>+  X>>>>>>>>>>>>>>>>>>>>>>>>>*---:-----------",
"---:::::;;;---->>>,+  +%>>,>,>,,,,,,,,,,,,>>>>>>>----:::::;;----",
"--------------->>>>+  +++X+X+X+X+X+X++++++XX&>>>>---------------",
"--------------->>>>&++++X+X+X+X+X+X+++++X.  X>>>>---------------",
"----====$$$---->>>>>>>>>>>>>>>>>>>>>>>>>>.  X>>>>----====$$$$---",
"-----------$---*>>>>>>>>>>>>>>>>>>>>>>>>>.  X&>>>-----------=$--",
"--;---------$--->>>>>>>>>>>>>>>>>>>>>>>>,.  X>>>>--;---------$--",
"--;----------$---*>>>>>>>>>>>>>>>>>>>>>>>.  X&>>>--;---------$--",
"--;-----------$---------------------->>>,.  X&>>>--;---------$--",
"--:------------=--------------------->>><.  X&>>>--:---------=--",
"--;-------------======$=$$$$$$$$$$--->>><X  +&>>>--:---------$--",
"--:------------------------------=$-->>><.  X&>>>--:---------=--",
"--:-------------------------------$-->>>,X  +&>>>--:---------=--",
"--:-------------------------------$-->>><.  X&>>>--:---------=--",
"--:-------------------------------$-->>>>X  +%>>>--;---------$--",
"--:-------------------------------=-->>>,X  +&>>>--:---------=--",
"--:-------------------------------=-->>>>X  +%>>>--:---------=--",
"--:-------------------------------=-->>>>X  X%>>>--:---------=--",
"--:;--------------------------------->>>>X  +%>>>--:;-----------",
"---::::::::::::::::;:;:::::;;;;;;---->>>>X  X%>>>---::::;;;;----",
"------------------------------------->>>>X  +%>>>---------------",
"------------------------------------->>>>+  +%>>>---------------",
"$$$$O$O$OOOOOO$O$O$$O$O$$$$$$$$$$X$XXXXOXX  XXOOO$$$$$O$O$OOOOOO"
};
