/* XPM */
static char *Yellow_Door21686651507[] = {
/* columns rows colors chars-per-pixel */
"64 64 18 1 ",
"  c None",
". c black",
"X c #141413",
"o c #151514",
"O c #2F1C17",
"+ c #28221F",
"@ c #292220",
"# c #382B2F",
"$ c #744000",
"% c #716033",
"& c #383F40",
"* c #464D4F",
"= c #536265",
"- c #62797E",
"; c #855A00",
": c #9F7315",
"> c #B08A2E",
", c #C1B339",
/* pixels */
"*************&****&:;;;X        .::::**************************&",
"&&&&&&&&&&&&&&&&&&&;;;;X        .:;;;&&&&&&&&&&&&&&&&&&&&&&&&&&&",
"&&&&&&&&&&&&&&&&&&&;;;$X        .:;;;&&&&&&&&&&&&&&&&&&&&&&&&&&&",
"OOOOOO#O#######&&&&;;;;X        .:;;;&&&OOOOOOOOOOOO#O####OOO##&",
"#&&&&&&&&&&&&&&&&&&;;;$X        .:;;;&&O#&&&&&&&&&&&&&&&&&&&&&&&",
"&&&&&&&&&&&&&&&&*&&;;;$X        .:;;;&&O&&&&&&&&&&&&&&&&&&&&&&&&",
"&&&&&&&&&&&&&&&&*&&;;;$X        .:;;;&&O&&&&&&&&&&&&&&&&&&&&&&&&",
"****************=**:::;+        X,:::**#************************",
"&&&&&&&&&&&&&&&&*&&;;;$X        .:;;;&&O&&&&&&&&&&&&&&&&&&&&&&&&",
"****************=**:::;+        X,:::**&************************",
"****************-**:::;X        .,:::**&************************",
"****************=**:::;X        .,:::***************************",
"****************-**:::;+        X,:::****===-=----=*************",
"****************-**:::;+        X,:::**************=************",
"****************-**:::;+        X,:::***************=***********",
"****************-**:::;X        X>:::::::::::::::%***=**********",
"****************-**:::;+        X,:::::::::::::::::***=*********",
"***************=-**::::X        X>:::::::::::::::::%***=*******=",
"*=====-=-=------***:::;+        X>>>>>>>>:>:>:::::::****=-------",
"*******************::::+        +++++++++X+XXX.;::::************",
"*******************::::;++++++++o@o@ooo        .::::************",
"######&#&&&&&&&****::::::::::::::::::$X        .>:::***####&&&&*",
"&******************%::::::::::::::::::X        .,:::**#*********",
"****************=***:::::::::::::::::;X        .,:::**#*********",
"*****************-***%::::::::::::::::X        .,:::**#*********",
"******************=***************:::;X        .,:::**#*********",
"*******************=**************:::;X        .,:::**#*********",
"********************&######&&&****:::;X        .,:::**#*********",
"**********************************:::;X        .,:::**#*********",
"*******************************=**:::;X        .>:::**#*********",
"*******************************=**:::;X        X,:::**&*********",
"*******************************=**:::;X        +>:::**#*********",
"*******************************=**:::;+        X>:::**&*********",
"*******************************-**:::;X        +>:::**#*********",
"*******************************-**:::;+        X>:::**&*********",
"******************************=-**:::;X        +>:::**&*********",
"*************------------------***::::+        +>:::**&*********",
"************-*********************:::;X        +>:::**&*********",
"***********-**********************::::+        +>:::**&*********",
"**********-***%::::::::::::::::::::::;X        +::::**&*********",
"*********-***:::::::::::::::::::::::::+        +>:::**&*********",
"********-***%:::::::::::::::::::::::::X        +::::***********=",
"*==-----****:::::::>>>>>>>>>>>>:>:>::$+        +>:::****===-----",
"************::::;XX++++++X+X+X+X+X+X+++        +::::************",
"************::::X        .X+++++X+X+X+X+X+X++++;::::************",
"####&&&&****::::X        .::::::::::::::::::::::::::****###&&&&*",
"&***********:::;X        .:::::::::::::::::::::::::%***#********",
"*********=**::::X        .>::::::::::::::::::::::::***#*********",
"*********=**:::;X        .:::::::::::::::::::::::%***#**********",
"*********=**:::;X        .>:::**********************#***********",
"*********-**:::;X        .,:::*********************&************",
"*********-**:::;+        X,:::***##########&#&&&&&&*************",
"*********-**:::;X        .,:::**#&******************************",
"*********-**:::;+        X>:::**#*******************************",
"*********-**:::;X        .,:::**#*******************************",
"*********=**:::$+        X::::**#*******************************",
"*********-**:::;+        X>:::**&*******************************",
"*********-**:::$+        X::::**&*******************************",
"*********-**:::$X        X::::**&*******************************",
"********=-**:::$+        X::::*********************************=",
"*====----***:::$X        X::::****======-----=-=----------------",
"************:::$+        X::::**********************************",
"************:::$+        +::::**********************************",
"OOO#O#O#####OOOXX        XXOXXXX#X##########O#O##O#O#OOOOOO#O#O#"
};
