/* XPM */
static char *Yellow_Door41686651507[] = {
/* columns rows colors chars-per-pixel */
"64 64 16 1 ",
"  c None",
". c black",
"X c #141413",
"o c #2F1C17",
"O c #28221F",
"+ c #382B2F",
"@ c #744000",
"# c #716033",
"$ c #383F40",
"% c #464D4F",
"& c #536265",
"* c #62797E",
"= c #855A00",
"- c #9F7315",
"; c #B08A2E",
": c #C1B339",
/* pixels */
"%%$%%%%$-===X                              .----%%%%%%%%%%%%%%%%",
"$$$$$$$$====X                              .-===$$$$$$$$$$$$$$$$",
"$$$$$$$$===@X                              .-===$$$$$$$$$$$$$$$$",
"++++$$$$====X                              .-===$$$oooooooooooo+",
"$$$$$$$$===@X                              .-===$$o+$$$$$$$$$$$$",
"$$$$$%$$===@X                              .-===$$o$$$$$$$$$$$$$",
"$$$$$%$$===@X                              .-===$$o$$$$$$$$$$$$$",
"%%%%%&%%---=O                              X:---%%+%%%%%%%%%%%%%",
"$$$$$%$$===@X                              .-===$$o$$$$$$$$$$$$$",
"%%%%%&%%---=O                              X:---%%$%%%%%%%%%%%%%",
"%%%%%*%%---=X                              .:---%%$%%%%%%%%%%%%%",
"%%%%%&%%---=X                              .:---%%%%%%%%%%%%%%%%",
"%%%%%*%%---=O                              X:---%%%%&&&*&****&%%",
"%%%%%*%%---=O                              X:---%%%%%%%%%%%%%%&%",
"%%%%%*%%---=O                              X:---%%%%%%%%%%%%%%%&",
"%%%%%*%%---=X                              X;---------------#%%%",
"%%%%%*%%---=O                              X:-----------------%%",
"%%%%&*%%----X                              X;-----------------#%",
"*****%%%---=O                              X;;;;;;;;-;-;-------%",
"%%%%%%%%----O                              OOOOOOOOOXOXXX.=----%",
"%%%%%%%%----=OOOOOOOOXOXOXXX                              .----%",
"$$$$%%%%------------------@X                              .;---%",
"%%%%%%%%#------------------X                              .:---%",
"%%%%%&%%%-----------------=X                              .:---%",
"%%%%%%*%%%#----------------X                              .:---%",
"%%%%%%%&%%%%%%%%%%%%%%%---=X                              .:---%",
"%%%%%%%%&%%%%%%%%%%%%%%---=X                              .:---%",
"%%%%%%%%%$++++++$$$%%%%---=X                              .:---%",
"%%%%%%%%%%%%%%%%%%%%%%%---=X                              .:---%",
"%%%%%%%%%%%%%%%%%%%%&%%---=X                              .;---%",
"%%%%%%%%%%%%%%%%%%%%&%%---=X                              X:---%",
"%%%%%%%%%%%%%%%%%%%%&%%---=X                              O;---%",
"%%%%%%%%%%%%%%%%%%%%&%%---=O                              X;---%",
"%%%%%%%%%%%%%%%%%%%%*%%---=X                              O;---%",
"%%%%%%%%%%%%%%%%%%%%*%%---=O                              X;---%",
"%%%%%%%%%%%%%%%%%%%&*%%---=X                              O;---%",
"%%******************%%%----O                              O;---%",
"%*%%%%%%%%%%%%%%%%%%%%%---=X                              O;---%",
"*%%%%%%%%%%%%%%%%%%%%%%----O                              O;---%",
"%%%#----------------------=X                              O----%",
"%%-------------------------O                              O;---%",
"%#-------------------------X                              O----%",
"%-------;;;;;;;;;;;;-;-;--@O                              O;---%",
"%----=XXOOOOOOXOXOXOXOXOXOOO                              O----%",
"%----X                              .XOOOOOXOXOXOXOXOXOOOO=----%",
"%----X                              .--------------------------%",
"%---=X                              .-------------------------#%",
"%----X                              .;------------------------%%",
"%---=X                              .-----------------------#%%%",
"%---=X                              .;---%%%%%%%%%%%%%%%%%%%%%%+",
"%---=X                              .:---%%%%%%%%%%%%%%%%%%%%%$%",
"%---=O                              X:---%%%++++++++++$+$$$$$$%%",
"%---=X                              .:---%%+$%%%%%%%%%%%%%%%%%%%",
"%---=O                              X;---%%+%%%%%%%%%%%%%%%%%%%%",
"%---=X                              .:---%%+%%%%%%%%%%%%%%%%%%%%",
"%---@O                              X----%%+%%%%%%%%%%%%%%%%%%%%",
"%---=O                              X;---%%$%%%%%%%%%%%%%%%%%%%%",
"%---@O                              X----%%$%%%%%%%%%%%%%%%%%%%%",
"%---@X                              X----%%$%%%%%%%%%%%%%%%%%%%%",
"%---@O                              X----%%%%%%%%%%%%%%%%%%%%%%%",
"%---@X                              X----%%%%&&&&&&*****&*&*****",
"%---@O                              X----%%%%%%%%%%%%%%%%%%%%%%%",
"%---@O                              O----%%%%%%%%%%%%%%%%%%%%%%%",
"+oooXX                              XXoXXXX+X++++++++++o+o++o+o+"
};
