/* XPM */
static char *Yellow_Door01686651507[] = {
/* columns rows colors chars-per-pixel */
"64 64 17 1 ",
"  c black",
". c #141413",
"X c #151514",
"o c #2F1C17",
"O c #28221F",
"+ c #292220",
"@ c #382B2F",
"# c #744000",
"$ c #716033",
"% c #383F40",
"& c #464D4F",
"* c #536265",
"= c #62797E",
"- c #855A00",
"; c #9F7315",
": c #B08A2E",
"> c #C1B339",
/* pixels */
"&&&&&&&&&&&&&&&&&%&&&&%;---. ;;;;&&&&&&&&&&&&&&&&&&&&&&&&&&%&%&&",
"%%%%%%%%%%%%%%%%%%%%%%%----. ;---%%%%%%%%%%%%%%%%%%%%%%%%%%%%%%%",
"%%%%%%%%%%%%%%%%%%%%%%%---#. ;---%%%%%%%%%%%%%%%%%%%%%%%%%%%%%%%",
"%%%%oooooo@o@@@@@@@%%%%----. ;---%%%oooooooooooo@o@@@@ooo@@%%%%%",
"%%%o@%%%%%%%%%%%%%%%%%%---#. ;---%%o@%%%%%%%%%%%%%%%%%%%%%%%%%%%",
"%%%o%%%%%%%%%%%%%%%%&%%---#. ;---%%o%%%%%%%%%%%%%%%%%%%%%%%%&%%%",
"%%%o%%%%%%%%%%%%%%%%&%%---#. ;---%%o%%%%%%%%%%%%%%%%%%%%%%%%&%%%",
"&&&@&&&&&&&&&&&&&&&&*&&;;;-O.>;;;&&@&&&&&&&&&&&&&&&&&&&&&&&&*&&&",
"%%%o%%%%%%%%%%%%%%%%&%%---#. ;---%%o%%%%%%%%%%%%%%%%%%%%%%%%&%%%",
"&&&@&&&&&&&&&&&&&&&&*&&;;;-O.>;;;&&%&&&&&&&&&&&&&&&&&&&&&&&&*&&&",
"&&&@&&&&&&&&&&&&&&&&=&&;;;-. >;;;&&%&&&&&&&&&&&&&&&&&&&&&&&&=&&&",
"&&&@&&&&&&&&&&&&&&&&*&&;;;-. >;;;&&&&&&&&&&&&&&&&&&&&&&&&&&&*&&&",
"&&&@&&&&&&&&&&&&&&&&=&&;;;-O.>;;;&&&&***=*====*&&&&&&&&&&&&&=&&&",
"&&&@&&&&&&&&&&&&&&&&=&&;;;-O.>;;;&&&&&&&&&&&&&&*&&&&&&&&&&&&=&&&",
"&&&@&&&&&&&&&&&&&&&&=&&;;;-O.>;;;&&&&&&&&&&&&&&&*&&&&&&&&&&&=&&&",
"&&&%&&&&&&&&&&&&&&&&=&&;;;-..:;;;;;;;;;;;;;;;$&&&*&&&&&&&&&&=&&&",
"&&&%&&&&&&&&&&&&&&&&=&&;;;-O.>;;;;;;;;;;;;;;;;;&&&*&&&&&&&&&=&&&",
"&&&&&&&&&&&&&&&&&&&*=&&;;;;..:;;;;;;;;;;;;;;;;;$&&&*&&&&&&&*=&&&",
"&&&&&*****=*=*======&&&;;;-O.::::::::;:;:;;;;;;;&&&&*=======&&&&",
"&&&&&&&&&&&&&&&&&&&&&&&;;;;OOOOOOOOOO.O... -;;;;&&&&&&&&&&&&&&&&",
"&&&&&&&&&&&&&&&&&&&&&&&;;;;-++++++++X+X+XXX ;;;;&&&&&&&&&&&&&&&&",
"&&&&@@@@@@%@%%%%%%%&&&&;;;;;;;;;;;;;;;;;;#. :;;;&&&@@@@%%%%&&&&&",
"&&&@%&&&&&&&&&&&&&&&&&&$;;;;;;;;;;;;;;;;;;. >;;;&&@&&&&&&&&&&&&&",
"&&&@&&&&&&&&&&&&&&&&*&&&;;;;;;;;;;;;;;;;;-. >;;;&&@&&&&&&&&&*&&&",
"&&&@&&&&&&&&&&&&&&&&&=&&&$;;;;;;;;;;;;;;;;. >;;;&&@&&&&&&&&&*&&&",
"&&&@&&&&&&&&&&&&&&&&&&*&&&&&&&&&&&&&&&;;;-. >;;;&&@&&&&&&&&&*&&&",
"&&&%&&&&&&&&&&&&&&&&&&&*&&&&&&&&&&&&&&;;;-. >;;;&&@&&&&&&&&&=&&&",
"&&&@&&&&&&&&&&&&&&&&&&&&%@@@@@@%%%&&&&;;;-. >;;;&&@&&&&&&&&&*&&&",
"&&&%&&&&&&&&&&&&&&&&&&&&&&&&&&&&&&&&&&;;;-. >;;;&&@&&&&&&&&&=&&&",
"&&&@&&&&&&&&&&&&&&&&&&&&&&&&&&&&&&&*&&;;;-. :;;;&&@&&&&&&&&&=&&&",
"&&&%&&&&&&&&&&&&&&&&&&&&&&&&&&&&&&&*&&;;;-..>;;;&&%&&&&&&&&&=&&&",
"&&&@&&&&&&&&&&&&&&&&&&&&&&&&&&&&&&&*&&;;;-.O:;;;&&@&&&&&&&&&=&&&",
"&&&@&&&&&&&&&&&&&&&&&&&&&&&&&&&&&&&*&&;;;-O.:;;;&&%&&&&&&&&&*&&&",
"&&&@&&&&&&&&&&&&&&&&&&&&&&&&&&&&&&&=&&;;;-.O:;;;&&@&&&&&&&&&=&&&",
"&&&@&&&&&&&&&&&&&&&&&&&&&&&&&&&&&&&=&&;;;-O.:;;;&&%&&&&&&&&&=&&&",
"&&&@&&&&&&&&&&&&&&&&&&&&&&&&&&&&&&*=&&;;;-.O:;;;&&%&&&&&&&&&=&&&",
"&&&@&&&&&&&&&&&&&==================&&&;;;;OO:;;;&&%&&&&&&&&&=&&&",
"&&&%&&&&&&&&&&&&=&&&&&&&&&&&&&&&&&&&&&;;;-.O:;;;&&%&&&&&&&&&=&&&",
"&&&@&&&&&&&&&&&=&&&&&&&&&&&&&&&&&&&&&&;;;;OO:;;;&&%&&&&&&&&&=&&&",
"&&&%&&&&&&&&&&=&&&$;;;;;;;;;;;;;;;;;;;;;;-.O;;;;&&%&&&&&&&&&=&&&",
"&&&%&&&&&&&&&=&&&;;;;;;;;;;;;;;;;;;;;;;;;;OO:;;;&&%&&&&&&&&&=&&&",
"&&&&&&&&&&&&=&&&$;;;;;;;;;;;;;;;;;;;;;;;;;.O;;;;&&&&&&&&&&&*=&&&",
"&&&&&**=====&&&&;;;;;;;::::::::::::;:;:;;#OO:;;;&&&&***=====&&&&",
"&&&&&&&&&&&&&&&&;;;;-..OOOOOO.O.O.O.O.O.OOOO;;;;&&&&&&&&&&&&&&&&",
"&&&&&&&&&&&&&&&&;;;;. .OOOOO.O.O.O.O.O.OOOO-;;;;&&&&&&&&&&&&&&&&",
"&&&&@@@@%%%%&&&&;;;;. ;;;;;;;;;;;;;;;;;;;;;;;;;;&&&&@@@%%%%&&&&&",
"&&&@%&&&&&&&&&&&;;;-. ;;;;;;;;;;;;;;;;;;;;;;;;;$&&&@&&&&&&&&&&&&",
"&&&@&&&&&&&&&*&&;;;;. :;;;;;;;;;;;;;;;;;;;;;;;;&&&@&&&&&&&&&*&&&",
"&&&@&&&&&&&&&*&&;;;-. ;;;;;;;;;;;;;;;;;;;;;;;$&&&@&&&&&&&&&&*&&&",
"&&&@&&&&&&&&&*&&;;;-. :;;;&&&&&&&&&&&&&&&&&&&&&&@&&&&&&&&&&&*&&&",
"&&&%&&&&&&&&&=&&;;;-. >;;;&&&&&&&&&&&&&&&&&&&&&%&&&&&&&&&&&&=&&&",
"&&&@&&&&&&&&&=&&;;;-O.>;;;&&&@@@@@@@@@@%@%%%%%%&&&&&&&&&&&&&*&&&",
"&&&%&&&&&&&&&=&&;;;-. >;;;&&@%&&&&&&&&&&&&&&&&&&&&&&&&&&&&&&=&&&",
"&&&%&&&&&&&&&=&&;;;-O.:;;;&&@&&&&&&&&&&&&&&&&&&&&&&&&&&&&&&&=&&&",
"&&&%&&&&&&&&&=&&;;;-. >;;;&&@&&&&&&&&&&&&&&&&&&&&&&&&&&&&&&&=&&&",
"&&&@&&&&&&&&&*&&;;;#O.;;;;&&@&&&&&&&&&&&&&&&&&&&&&&&&&&&&&&&=&&&",
"&&&%&&&&&&&&&=&&;;;-O.:;;;&&%&&&&&&&&&&&&&&&&&&&&&&&&&&&&&&&=&&&",
"&&&%&&&&&&&&&=&&;;;#O.;;;;&&%&&&&&&&&&&&&&&&&&&&&&&&&&&&&&&&=&&&",
"&&&%&&&&&&&&&=&&;;;#..;;;;&&%&&&&&&&&&&&&&&&&&&&&&&&&&&&&&&&=&&&",
"&&&&&&&&&&&&*=&&;;;#O.;;;;&&&&&&&&&&&&&&&&&&&&&&&&&&&&&&&&&*=&&&",
"&&&&&****====&&&;;;#..;;;;&&&&******=====*=*================&&&&",
"&&&&&&&&&&&&&&&&;;;#O.;;;;&&&&&&&&&&&&&&&&&&&&&&&&&&&&&&&&&&&&&&",
"&&&&&&&&&&&&&&&&;;;#OO;;;;&&&&&&&&&&&&&&&&&&&&&&&&&&&&&&&&&&&&&&",
"@oooooo@o@o@@@@@ooo....o....@.@@@@@@@@@@o@o@@o@o@oooooo@o@o@@@@@"
};
