/* XPM */
static char *result[] = {
/* columns rows colors chars-per-pixel */
"64 64 174 2 ",
"   c #0A0908",
".  c gray4",
"X  c #0F0A08",
"o  c #0F0D0C",
"O  c gray6",
"+  c #170606",
"@  c #110D0A",
"#  c #130D0A",
"$  c #160F0C",
"%  c #19120D",
"&  c #001A15",
"*  c #001D17",
"=  c #131312",
"-  c #161312",
";  c #141617",
":  c #141717",
">  c #171716",
",  c #1A1310",
"<  c #1B1917",
"1  c #1D1815",
"2  c #1B1B1A",
"3  c #1D1A19",
"4  c #1E1C18",
"5  c #1D1C1A",
"6  c #211713",
"7  c #211813",
"8  c #261D12",
"9  c #271B14",
"0  c #2A1D17",
"q  c #221D1A",
"w  c #271D18",
"e  c #002115",
"r  c #0D2610",
"t  c #0E2711",
"y  c #0F2711",
"u  c #0A2A11",
"i  c #0A2B12",
"p  c #0F2A13",
"a  c #0F2A14",
"s  c #00221C",
"d  c #062919",
"f  c #072E1B",
"g  c #102911",
"h  c #112C14",
"j  c #122D15",
"k  c #132E16",
"l  c #132E17",
"z  c #0F371D",
"x  c #1B3313",
"c  c #1C3413",
"v  c #1C3414",
"b  c #1D3414",
"n  c #1E3514",
"m  c #1D3615",
"M  c #1D3716",
"N  c #183814",
"B  c #1F3817",
"V  c #103D1F",
"C  c #21201E",
"Z  c #28221F",
"A  c #2E221C",
"S  c #322219",
"D  c #32221C",
"F  c #3B291E",
"G  c #3B2D1D",
"H  c #203A18",
"J  c #213A19",
"K  c #213B19",
"L  c #253F1D",
"P  c #002922",
"I  c #1F2324",
"U  c #003422",
"Y  c #083721",
"T  c #252220",
"R  c #252321",
"E  c #252623",
"W  c #292623",
"Q  c #2C2821",
"!  c #2C2A22",
"~  c #2E2B25",
"^  c #2E2C26",
"/  c #2C2A28",
"(  c #282C2C",
")  c #3B2921",
"_  c #332F28",
"`  c #32312E",
"'  c #2F3535",
"]  c #383531",
"[  c #393633",
"{  c #383B36",
"}  c #463124",
"|  c #433D39",
" . c #413E38",
".. c #433F3C",
"X. c #2C4615",
"o. c #234915",
"O. c #2C4818",
"+. c #2D4918",
"@. c #2E4918",
"#. c #2F4A19",
"$. c #2F4B1B",
"%. c #304918",
"&. c #314A19",
"*. c #314C1B",
"=. c #314C1C",
"-. c #324F1D",
";. c #334F1D",
":. c #315216",
">. c #3B5112",
",. c #3D5212",
"<. c #3D5213",
"1. c #3E5313",
"2. c #3E5416",
"3. c #3D5913",
"4. c #33501E",
"5. c #35511E",
"6. c #36511F",
"7. c #316A1F",
"8. c #094227",
"9. c #16582E",
"0. c #375422",
"q. c #385522",
"w. c #405313",
"e. c #415616",
"r. c #425817",
"t. c #435818",
"y. c #435918",
"u. c #455A18",
"i. c #455B19",
"p. c #4C7C11",
"a. c #434034",
"s. c #47443B",
"d. c #42433D",
"f. c #49443E",
"g. c #4F483B",
"h. c #383F40",
"j. c #5F2F4A",
"k. c #6E2F40",
"l. c #494943",
"z. c #4D4A44",
"x. c #4F4C48",
"c. c #534D42",
"v. c #534D44",
"b. c #565040",
"n. c #57524C",
"m. c #5B5548",
"M. c #58584D",
"N. c #565851",
"B. c #5B5952",
"V. c #595D5A",
"C. c #66604E",
"Z. c #6C6657",
"A. c #67625C",
"S. c #79735E",
"D. c #666A62",
"F. c #756F64",
"G. c #73746F",
"H. c #7C7D73",
"J. c #BA3A66",
"K. c #807B6A",
"L. c #FF9C15",
"P. c #FFD711",
"I. c #868473",
"U. c #993AA8",
"Y. c #FF4398",
"T. c #FF73B8",
"R. c #BE43FF",
"E. c #F373FF",
"W. c #888C86",
"Q. c #89928C",
"!. c #93968B",
"~. c #9F9F8B",
"^. c #A1A9A3",
"/. c None",
/* pixels */
") A ) ) } } ) } ) ) ) ) A A A A A ) A ) } } } ) } ) ) ) ) ) ) ) ) A ) A A A A ) ) ) ) ) A A A A A ) A ) A A } ) } ) ) ) ) ) ) ) ",
"S.A.B.x.x.} K.^.Q.K.K.S.S.K.K.K.S.A.B.x.x.} !.^.Q.K.K.S.S.B.K.K.S.A.B.x.x.) K.^.Q.!.!.S.S.S.S.S.S.A.B.x.A } ) K.^.~.K.K.K.B.K.K.",
"A.B.A.B.Z ) ~.D.A.A.A.A.S.K.A.A.A.B.A.B.Z ) ~.D.A.A.A.S.D.K.D.A.A.B.A.B.Z A ~.D.A.A.A.S.D.D.A.A.A.D.[ B.Z ) } !.D.A.A.A.S.K.D.A.",
"A.A.B.A.8.8.8.[ A.A.A.D.D.A.A.A.A.A.B.A.h.A K.A.A.A.S.D.A.D.A.A.A.A.B.A.h.) K.A.A.A.S.D.A.A.A.A.{ 7.9.[ h.} K.s.A.A.A.D.D.D.A.A.",
"A.A.A.8.8.8.P ` [ A.A.F.x.A.A.A.A.A.A.A.8.G G B.A.A.A.F.x.A.A.A.A.A.A.A.Z A K.A.A.K.A.A.D.F.x.x./ 9.9.` Z 8.8.8.[ A.A.F.x.A.A.A.",
"A.A.A.9.8.P U G 8.[ A.x.x.A.A.A.A.A.A.9.9.9.P R A.F.x.x.x.A.A.A.A.A.A.B.Z ) B.A.A.F.x.x.A.x.B./ [ P 9.G G P 8.8.8.[ A.x.x.A.A.A.",
"x.A.A./ - 6 P 9.9.9.B.h.h.A.A.x.x.k.T.k.9.P G 5 / / x.x.B.A.A.x.x.A.A.x.Z ) B.x.x.x.x.B.A.A./ 8.8.j.E.j.- @ P 8.9.[ B.h.h.A.A.x.",
"h.h.Z Z h.9 j.R.7.7.7.Z h.h.h.h.h.T.P.Y.: % . G G G 8.- h.2 2 Z h.h.Z Z h.} x.Z Z Z h.h.h.I 9.9.9.E.P.R.I , / - I Z Z Z h.h.h.h.",
"A A ) A R.U.L.U.G 7.p.6 A A 8.8.G k.Y.k.8.U 9.9.9.P G 8.8., A ) ) ) ) ) ) ) A A A A A ) , 7.7.7.U j.R.j.) ) ) ) ) ) ) A ) ) ) A ",
"K.!.K.K.j.L.P.L.j.5 5 / B.9.9.9.P 4 & d 9.! 7.9.P R P G 9.9.I ) K.^.~.~.K.K.K.B.B.x.x.x.` p.7.8.G 8 d ~ K.K.K.S.S.S.S.A.B.x.x.} ",
"K.D.A.A.| U.L.U.R.[ / B.` 7.j.E.j.E ` C ` ` ` ` C E C P G 7.U , !.S.S.S.A.A.S.K.A.A.x.B.A./ o % P 9.9.9.{ A.D.D.A.A.A.D.A.B.Z ) ",
"K.A.A.S.A.R.j.d d 8.[ ` [ C E.P.R.` ` [ B.B.B.B.` ` ` 9.9.9.P 6 S.A.S.A.D.S.A.A.A.A.A.A.A.x.- 6 C P 9.7.[ A.A.A.A.A.D.A.A.A.h.} ",
"x.A.B.A.A.T d 8.8.P G G 8.8.j.R.j.D.B.B.B.B.B.B.h.h.7.7.7.U G 6 a.{ D.A.D.A.A.A.A.A.B.A.A.B.Z A / G C k.T.k.A.F.x.x.x.B.A.B.Z A ",
"x.B.A.B.A.B.9.8.P C 8.P 9.9.z X 3 B.B.B.B.B.B.x.x.h.p.7.8.5 8.G 8.8.k.Y.A.A.B.A.A.B.A.A.A.A.h., 8.8.G T.P.Y.A.x.B.x.A.A.B.B.Z ) ",
"x.x.B.A.B.A.` R R 9.9.9.P 9.7.6 h.x.B.h.h.h.B.h.h.B.I / C 9.9.P Y.J.L.J.A.x.A.A.A.A.A.A.A.A.- 9.9.9.P k.Y.k.G 8.8.[ x.B.A.x.Z A ",
"x.Z Z Z h.h.h.I 7.7.7.U o . I } h.2 Z 2 Z Z Z 2 Z Z Z Z O 9././.k.L.P.L.k.h.Z h.+ h.h.Z Z 2 I 7.9.P 9.z z & P G 9.9.I h.Z Z h.) ",
"A A A A A ) A ) p.7.8.$ 9 6 ) ) ) ) ) ) ) A ) A /././././././././.J.L.J.Y./././././././.} ) ) 6 6 $ 7.9.P @ $ U 7.7.7.9 ) ) ) ) ",
"A.K.S.S.A.B.x.h.x.9 s.V.Q.K.K.S.S.B.K.K.S.A.B.x.x././././././././.Y.k.d /././././././.K.^.~.K.K.K.` s.^ ! R G 5 8.7.p.M.K.K.K.A.",
"A.S.B.B.B.x.B.x.2 ) ~.D.A.A.A.S.D.K.D.A.A.B.A.B.Z /././././././.9.z z P 9.9./././././.!.D.A.A.A.S.K.D.[ R 8.8.G o $ s.{ B.B.B.B.",
"D.B.B.B.B.B.x.B.Z A K.A.A.A.S.D.A.D.A.B.A.A.B.A.h./././././././.7.9.P G /.9././././.K.K.A.A.A.D.D.D.A.[ [ P 9.9.9.6 S.B.B.B.B.D.",
"h.B.B.B.B.B.B.B.2 ) x.B.A.A.A.F.x.A.x.K.A.A.A.A.Z /./././././././././.G 8.G /./././.A.B.A.A.A.F.x.[ G G 8.8.P 9.7.6 h.x.B.B.B.A.",
"h.B.B.B.B.B.B.x.2 ) B.A.A.F.x.x.x.h.K.A.A.A.A.B.Z /././././././././.9.9.9.P G G 8.8.B.A.B.A.A.x./ G P 9.9.9.R C - ) x.B.B.B.B.h.",
"Z B.B.h.h.B.B.h.2 ) B.x.x.x.x.x.h.~.A.x.x.A.A.x.Z /./././././././.7.7.7.U /.9.9.9.P G B.A.A.B.h.8.j.8.P 9.7.[ / Z ) x.h.h.B.x.Z ",
"Z Z Z Z Z Z 2 2 Z } x.Z Z Z h.A K.2 2 Z h.h.Z Z /././././././././.p.7.8././.7.9.P /.G 8.8.Z Z 9.R.E.j.R.: I Z Z h.} h.2 2 2 2 2 ",
") A ) ) ) ) ) ) ) ) A ) ) /././././././././././././././././././././././././././././.P 9.9.9.G 7.j.P.L.R.j.A A A A A ) A ) ) A A ",
"^.!.K.K.K.K.S.S.S.S.A.B.x.x.U U U /./././././././././././././././././././././././././.P 9.7.8.j.E.L.L.j.g.S.B.B.h.h.h.x.x.h.} K.",
"A.A.K.D.A.D.D.A.A.A.D.A.B.Z P 8.8.8././././././././././././././././././././././././././.8.G U e R.j.R.R.B.A.S.B.B.h.x.B.h.2 } !.",
"B.A.B.A.A.A.A.A.A.D.A.A.A.k.T.k.8.8./././././././././././././././././././././././././.9.9.9.P 8.d d j.d.A.B.B.B.B.B.B.B.h.2 ) B.",
"A.B.A.A.A.A.F.x.x.x.B.A.B.T.P.Y././././././././././././././././././././././././././.7.7.7.U /.P 8.8./.S.B.B.B.B.B.x.B.B.x.2 A x.",
"B.A.B.A.A.A.x.B.x.A.A.B.B.k.Y.k.G /./././././././././././././././././././././.U U U p.7.G /./././././.S.B.x.B.B.x.B.B.B.B.Z A x.",
"x.B.A.B.A.A.A.x.A.x.B.A.x.z z z P U U U /./././././././././././././././././.8.8.8.P G 8././././././././.h.B.B.B.B.B.B.B.B.2 A x.",
"Z Z Z h.Z h.h.h.h.h.h.Z - 7.9.P 8.P 8.8.8.j.E.j././././././././././././././.8.8.P G /./././././././././.Z 2 Z + Z Z 2 2 2 Z A x.",
"A ) ) } } ) } ) ) ) ) A A /./././.8.P 8.8.E.P.R.8.8.8.G /./.8.8.8././././././.U G 8././././././././././././.) } ) ) ) ) ) ) ) ) ",
"A.B.x.x.} S.~.K.K.K.A.A.K.S.a.R 9.9.9.P G j.R.j.9.9.9./.G 9.9.9.U U U /./././.P 9.9.9./././././././././././.K.^.~.K.K.K.B.K.K.S.",
"B.A.B.Z ) K.D.B.B.B.B.A.S.B.` 7.7.7.U . 8.z & /.U 7.7.7./.7.9.P P 8.8.8./.8.8.G U 7.7.7./././././././././.} !.D.A.A.A.S.K.D.A.A.",
"A.B.A.h.) S.B.B.B.B.D.D.B.B.` p.7.8.C - 9.9.P /./.8.7.p././././.8.P 8.8.9.9.9.P /.8.7.p./././././././././.K.K.A.A.A.D.D.D.A.A.A.",
"A.A.A.Z ) h.x.B.B.B.A.h.B.B.B.` ` ` ` O /.7./././././././././.9.9.9.P /.7.9.P /./././././././././././././.A.B.A.A.A.F.x.A.A.A.A.",
"A.A.B.Z ) x.B.B.B.B.h.h.B.B.B.B.B.B.x.2 /././././././././././.7.9.P G /./.G 8.8./././././././././././././.B.A.B.A.A.x.x.A.A.A.A.",
"A.A.x.Z ) x.h.h.B.x.Z Z B.B.h.h.B.B.h.2 /./././././././././././././.G /.k.T.k.9.9././././././././././././.x.B.A.A.B.h.h.A.A.x.x.",
"h.Z Z h.} h.2 2 2 2 2 Z Z Z Z Z Z 2 2 /././././././././././././././.8.8.T.P.Y.9.7././././././././././././.x.Z h.Z Z Z h.h.h.h.h.",
"A A A ) A ) ) A A ) ) A ) A A /./././././././././././././././././.9.9.9.k.Y.k./././././././././././././././.) ) ) ) ) ) A ) ) ) ",
"} K.!.K.K.K.K.x.K.B.x.x.x.B.B.x././././././././././././././././.7.7.7.U /.; c.K.B.A B.x.x.B.B.h./.K.^.!.K.K.K.K.S.S.S.S.A.B.x.x.",
") K.D.A.A.A.A.A.S.K.A.x.B.B.A.Z /./././././././././././././././.p.7.8.U U U B.A.h.K.A.x.B.A.x.Z } !.A.A.K.D.A.D.D.A.A.A.D.A.B.Z ",
"} K.A.A.S.A.A.A.A.A.A.A.B.A.B.Z /././././././././././././././.U U U /.P 8.8.8.h.~.A.A.A.A.A.x.Z ) B.B.A.B.A.A.A.A.A.A.D.A.A.A.h.",
"A x.A.B.A.A.A.A.B.A.A.x.B.A.B.h././././././././././././././.8.8.8.j.8.8.P 8.8.K.A.A.A.B.A.A.B.Z A x.A.B.A.A.A.A.F.x.x.x.B.A.B.Z ",
") x.B.A.B.A.B.A.A.A.B.x.A.B.A.Z /./././././././././././././.8.8.R.E.j.R.9.` K.B.A.A.B.A.A.A.A.h.A x.B.A.B.A.A.A.x.B.x.A.A.B.B.Z ",
"A x.x.B.A.B.A.B.A.A.B.x.B.B.x.Z /./././././././././././././././.j.P.L.R.j.[ x.A.A.A.A.A.A.A.A.Z A x.x.B.A.B.A.A.A.x.A.x.B.A.x.Z ",
") x.Z Z Z h.h.h.h.h.h.h.Z Z 2 h./././././././././././././././.j.E.L.L.j.  I I Z h.+ h.h.Z Z 2 h.A x.Z Z Z h.Z h.h.h.h.h.h.Z Z h.",
"A A ) A ) } } } ) } ) ) ) ) ) /././././././././././././././././.R.j.R.R.8.8.8.9 ) } ) ) ) ) ) ) ) ) A ) ) } } ) } ) ) ) ) A A A ",
"K.S.A.B.x.B.} K.^.Q.K.K.S.S.B.K.K.S.A.B.x.x./.K.^.Q.!.!.S.S.S.S.Q z j.z P 9.9.9.a.~.K.S.S.S.x.K.K.A.B.x.h.h.} !.^.Q.K.K.S.S.K.K.",
"A.A.B.A.B.Z ) ~.D.A.A.A.S.D.K.D.A.A.B.A.B.Z A ~.D.A.A.A.S.D.D.A.[ 7.z P C U 7.7.7.{ B.B.B.A.K.D.B.B.x.B.x.2 ) ~.D.A.A.A.A.S.K.A.",
"A.A.A.B.A.h.A K.A.A.A.S.D.A.D.A.A.A.A.B.A.h.) K.A.A.A.S.D.A.A.A.A.{ R R R G 8.7.p.` B.B.D.D.D.B.B.B.B.x.B.Z ) K.A.A.A.A.D.D.A.A.",
"A.A.A.A.A.Z ) x.B.A.A.A.F.x.A.A.A.A.A.A.A.Z A K.A.A.K.A.A.D.F.x.x.x.` R G G 8.C 5 ` B.B.A.h.B.B.B.B.B.B.B.2 ) x.B.A.A.A.F.x.A.A.",
"A.A.A.A.B.Z ) B.A.A.F.x.x.x.A.A.A.A.A.A.B.Z ) B.A.A.F.x.x.A.x.B.x.8.8.8.P 9.9.9.` x.B.B.h.h.B.B.B.B.B.B.x.2 ) B.A.A.A.A.x.x.A.A.",
"x.x.A.A.x.2 ) B.x.x.x.x.x.B.n.A.x.x.A.A.x.Z ) B.x.x.x.x.B.A.A.x.9.9.9.P 5 P 9.7./ B.B.x.q Z B.B.h.h.B.B.h.2 ) B.x.x.A.B.h.h.A.A.",
"h.h.h.q 2 h.F x.Z Z Z h.Z M > 2 Z h.h.Z Z h.} x.Z Z Z h.h.U U U 7.9.P U U U , O 2 Z 2 >.> Z Z Z Z Z Z 2 2 Z } x.Z Z Z Z Z h.h.' ",
"0 D ) 0 A A 7 A A ) A ) 0 ,.w ) A ) ) ) ) ) ) ) ) A ) ) 8.8.8.P 8.@ # P 8.8.8.) A ) A ,.c A A A ) A ) ) A } w } ) A A A A ) %.D ",
"q.I.m.i.m.B. .] ..x.B.B.] w.m.W.H.K.K.K.K.S.S.S.S.A.B.x.Y 8.P 9.9.9.*._ s 8.Y x..... .-.] S S.z.S.S.C.S.h.B.z.f.A.B.x.' h.0 6.G.",
"5.b.;.t.b.K.;.f...-.A...1 w.L n.;.K.D.n.D.N.A.A.n.l.A.B.1 1.8.U 7.o.3.W n.S.Z.t.] z. .t.1 %.K.l.z.r. .B. .B.z.4.B.N.B...> 7 0.b.",
"u.k 4.u.f.n.;.t.n.f.J ..1 %.j z.f.-.A.n.;.f.t.f.N.;.f.J f f 8.< f o.:.p n.f.n.;.J z.f.-.1 &.C. .z.t. .z. .z. .-. .z. .-.1 b u.f.",
"y.k K t.J n.f.t. .;.;.z.1 y B f. .;.k f.t.v.=.B ] -.;.V 9.V P < #.W m k f. .f.t.B  .t.-.( b 5.l. .-. .H  .r.( $.( =. .=.= 1.u.K ",
"J 4.J ;.H ;.f.H f.J t.k 2.@.h H f.H ;.f.t.h r.B f.f.H 7.9.* U U u  .J j f.;.f.j B f.r.J +.0 B  .r.-. . .-.e.] 2.H j ] e.O.n ;.l ",
";.k ;.=.J k f.J ;.k t.k <.y =.h -.J -.J t.k B k ] H ;./ o G P 8.i N j f.j J ;.j e.-.j =.v 0 M e.-.a 2.M j 2.a r.M h j 2.r g -.k ",
"a v a $.t a X.a M t v O.a c h t +.t M t $.M a a $.M t Z I G / P i N a M a $.a $.2.t t O.a n t r +.r +.t <.r t +.t +.x O.v n h t "
};
