/* XPM */
static char *_fb229bfb7f640ecf1a28423b4c7df00Ox4VTKWUuGiZqFLr[] = {
/* columns rows colors chars-per-pixel */
"64 64 25 1 ",
"  c black",
". c #141413",
"X c #1C1C1B",
"o c #2F1C17",
"O c #28221F",
"+ c #292A28",
"@ c #382B2F",
"# c #4B3F38",
"$ c #040656",
"% c #232D46",
"& c #383F40",
"* c #373F4B",
"= c #243C5B",
"- c #070872",
"; c #08257B",
": c #0B3A7B",
"> c #35464F",
", c #464D4F",
"< c #536265",
"1 c #62797E",
"2 c #115B82",
"3 c #1A95A7",
"4 c #2CE1AB",
"5 c #889C9E",
"6 c white",
/* pixels */
"                                                                ",
",,&,&&&. ,,,,,,,,,,,,,,,,,,,,,,,,O,,,&,&,,,,,,,,,,&,&&&. ,,,,,,,",
"&&&&&&&. ,&&&&&&&&&&&&&&&&&&&&,&&O&&&&&&&&&&&&&&&&&&&&&. ,&&&&&&",
"&&&&&&&. ,&&&&&&&&&&&&&&&&&&&&<&&@&&&&&&&&&&&&&&&&&&&&&. ,&&&&&&",
"&&@1,&&. ,&@1,&&&&&&&&&&&&&&&&,&&O&&&&&&&&&&&&&&&@1,&&&. ,@1,&&&",
"&&@,,&&. ,&@,,&&&&&&&&&&&&&&&&<&&@&&&&&&&&&&&&&&&@,,&&&. ,@,,@&&",
"&&@@&&&. ,&@@&&&&&&&&&&&&&&&&&<&&@&&&&&&&&&&&&&&&@@&&&&. ,@@@&&&",
"&&&&&&&. ,&&&&&&&&&&&&&&&&&&&&<&&@&&&&&&&&&&&&&&&&&&&&&. ,&@@&&&",
",,,,,,,O.1,,,,,,,,,,,,,,,,,,,,1,,&,,,,,,,,,,,,,,,,,,,,,O.1,##,,,",
"&&&&&&&. ,&&&&&&&&&&&&&&&&&&&&<&&@&&&&&&&&&&&&&&&&&&&&&. ,&@@&&&",
",,,,,,,O.1,,,,,,,,,,,,,,,,,,,,1,,&,,,,,,,,,,,,,,,,,,,,,O.1,##,,,",
",,,,,,,. 1,,,,,,,,,,,,,,,,,,,,1,,&,,,,,,,,,,,,,,,,,,,,,. 1,##,,,",
",,,,,,,O.1,,,,,,,,,,,,,,,,,,,,1,,&,,,,,,,,,,,,,,,,,,,,,O.1,,#,,,",
",,,,,,,O.1,,,,<555551511111111,,,,<11111<1<<<<<<<,,,,,,O.1,#,,,,",
",,,,,,,O.1,,,<5,,,,,,,,,,,,,,,,,,,,,,,,,,,,,,,,,,,,,,,,O.1,,#,,,",
",,,,,,,O.1,,,5,1,,,,,,,,,,,,,,,,,,,,,,,,,,,,,,,,1,&,,,,O.1,#,,,,",
",,,,,,,..<,,,5@,,&@@@@@@@@@&@&@&&&&&&&,&,&,,,,,@,,&,,,,..<,,,,,,",
",,,,,,,O.1,,,5,,&>=;;;;;;;;;;;;;;;;;;;;;;;;;;=>,,,&,,,,O.1,,,,,,",
",,,,,,,..<,,,5,,@=4332222:2::::;:;:;;;;;;;;;;;=,,,&,,,,..<,,,,,,",
",,,,,,,O.1,,,5,,@;32::::::::;:;:;;;;;;;;;;;;;;;<,,&,,,,O.1,,,,,,",
",,,,,,,..<,,,1,,@;2::::::;:;:;;;;;;;;;;;;;;;;;;<,,&,,,,..<,,,,,,",
",,,,,,,O.<,,,5,,@;2:::;:;:;;;;;;;;;;;;;;;;;;;;-<,,&,,,,O.<,,,,,,",
",,,,,,,X.<,,,1,,@;       ;     ;     ;        ;<,,&,,,,X.<,,,,,,",
",,,,,,,X.<,,,1,,@;: 6666 ; 666 ; 666 ; 66666 ;-<,,&,,,,X.<,,,,,,",
",,,,,,,XX<,,,1,,@;2 6  6 ; 6 6 ; 6 6 ; 6 6 6 ;-1,,&,,,,XX<,,,,,,",
",,,,,,,X.<,,,1,,@;: 6  6 ; 6 6 ; 6 6 ; 6 6 6 ;-<,,&,,,,X.<,,,,,,",
",,,,,,,.X<,,,1,,@;: 6  6 ; 6 6 ; 6 6 ; 6 6 6 ;-1,,&,,,,.X<,,,,,,",
",,,,,,,X.<,,,1,,&;; 6  6 ; 6 6 ; 6 6 ; 6 6 6 ;-1,,&,,,,X.<,,,,,,",
",,,,,,,..<,,,1,,@;: 6  6 ;  66 ; 66  ; 6 6 6 ;$1,,&,,,,..<,,,,,,",
",,,,,,,..<,,,<,,&;; 6 66 ;;  6 ; 6  ;; 6 6 6 ;-1,,&,,,,..<,,,,,,",
",,,,,,,.O<,,,1,,&;: 666  ;;;   ;   ;;;   6 6 ;$1,,&,,,,.O<,,,,,,",
",,,,,,,O.<,,,<,,&;; 66  ;;;;;  ;  ;;;;;  6 6 ;$1,,@,,,,O.<,,,,,,",
",,,,,,,.O<,,,<,,&;: 6  ;;;;;;; ; ;;;;;;;   6 ;$5,,&,,,,.O<,,,,,,",
",,,,,,,O.<,,,<,,&;;   ;;;;;;;;;;;;;;;;;;;  6 ;$1,,@,,,,O.<,,,,,,",
",,,,,,,.O<,,,<,,,;;  ;;;;;;;;;;;;;;;;;;;;;   ;$5,,@,,,,.O<,,,,,,",
",,,,,,,OO<,,,<,,&;; ;;;;;;;;;;;;;;;;;;;;;;;  -$1,,@,,,,OO<,,,,,,",
",,,,,,,OO<,,,<,,,;;;;;;;;;;;;;;;;;;;;;;;;;;; ;$5,,@,,,,O.<,,,,,,",
"1111,1,O.<,,,<,,,;;;;;;;;;;;;;;;;;;;;;;;;;;;;-$5,,@,,,,..<,,,,,,",
"         <,,,<,,,;;;;;;;;;;;;;;;;;;;;;;;;;-;-;$5,,@,,,,..       ",
"         <,,,<,,,=;;;;;;;;;;;;;;;;;;;;;-;-;-;-%5,,@,,,,.+       ",
"X. .X....<,,,<,,,>=;;;;-;----------$-$$$$$$$$%*1,,@,,,,... .X...",
"+. ++X.+.<,,,<,,,,,<,<,<<<<<<<<<<1<111111555551,,,@,,,,.+. ++X.+",
"+. ++XX+X<,,,<,1,,,,,,,,,,,,,,,,,,,,,,,,,,,,,,,,1,@,,,,.+. ++XX+",
"+. ++XX+.<,,,,@,,,,,,,,,,,,,,,,,,,,,,,,,,,,,,,,@,@&,,,,.+. ++XX+",
"+X.++XX+X,,,,,,&&&&&&&&&&@&@&@@@@@@@@@@@@@@@@@@@@&,,,,,.+X.++XX+",
"+. ++XX+X<,,,,,,,,,,,,,,,,,,,,,,,,,,,,,,,,,,,,,,,,,,,,, +. ++XX+",
"+X.++XX+X<,,,,,,,,,,,,,,,,,,,,,,,,,,,,,,,,,,,,,,,,,,,,,.+X.++XX+",
"+X ++XX+X1,,,,,,,,,,,,,,,,,,,,,,,,,,,,,,,,,,,,,,,,,,,,, +X ++XX+",
"+X.++XX+X11111111,1,1,1111111111111111111,1,111111,1,,, +X.++XX+",
"+X.++XX+X                                               +X.++XX+",
"+..++XX+X. .X...X. .X...X. .X...X. .X...X. .X...X. .X...+..++XX+",
"+X.++XX++. ++X.++. ++X.++. ++X.++. ++X.++. ++X.++. ++X.++X.++XX+",
"X. +XXX++. ++XX++. ++XX++. ++XX++. ++XX++. ++XX++. ++XX+X. +XXX+",
"+..X+XX++. ++XX++. ++XX++. ++XX++. ++XX++. ++XX++. ++XX++..X+XX+",
"X. +XX.+X. +XX.+X. +XX.+X. +XX.+X. +XX.+X. +XX.+X. +XX.+X. +XX.+",
"X  XX. XX  XX. XX  XX. XX  XX. XX  XX. XX  XX. XX  XX. XX  XX. X",
"111111111<1111<1<1<1<1<<<<<<1<1<1<11111111111111111111111<1111<1",
",,,,,,,,&,,,,,,,,,,,,,,,,&,,,,,,,,,,,,,&,&,,,,,,&,&,,,,,&,,,,,,,",
",&,,,,,&,,,,,,,,,,,,,,,&&,,,,,,,,,,,,,,,&,,,,,,,,&,,,,,&,,,,,,,,",
"&,,1&,,,,,,1&,,,,,,1&,,&,,,1&,,,,,,1&,,&,,,1&,,,&,,1&,,,,,,1&,,,",
",,@&&,,,,,@&&,,,,,@&&,&,&,@&&,,,,,@&&,,,,,@&&,,&,,@&&,,,,,@&&,,&",
"&,@@,,,,,,@@,,,,,,@@,,,&,,@@,,,,,,@@,,,,,,@@,,&&,,@@,,,,,,@@,,&,",
",,,,,,,,,,,,,,,,,,,,,,&,,,,,,,,,,,,,&,,,,,,,,,&,,,,,,,,,,,,,,&,&",
"@oooooo@o@o@@@@@@@o@o@.@.@....@.@@@@@@@@o@o@@o@o@oooooo@o@o@@@@@"
};
