/* XPM */
static char *result[] = {
/* columns rows colors chars-per-pixel */
"64 64 49 1 ",
"  c black",
". c #010101",
"X c #141413",
"o c #1C1C1B",
"O c #2F1C17",
"+ c #28221F",
"@ c #292A28",
"# c #382B2F",
"$ c #4B3F38",
"% c #0E7210",
"& c #040656",
"* c #232D46",
"= c #383F40",
"- c #373F4B",
"; c #243C5B",
": c #070872",
"> c #08257B",
", c #0B3A7B",
"< c #35464F",
"1 c #464D4F",
"2 c #457F45",
"3 c #536265",
"4 c #62797E",
"5 c #069307",
"6 c #09BA08",
"7 c #1BA337",
"8 c #46C536",
"9 c #2E9546",
"0 c #589F5D",
"q c #618967",
"w c #1BD745",
"e c #65CD54",
"r c #6FDC5D",
"t c #4DE552",
"y c #60E160",
"u c #115B82",
"i c #1A95A7",
"p c #2CE1AB",
"a c #7EE089",
"s c #889C9E",
"d c #83CC83",
"f c #8AC295",
"g c #A3CD9D",
"h c #9DEF9D",
"j c #B2CDAE",
"k c #C2E2BB",
"l c #C6D3C2",
"z c #D2D2D2",
"x c gainsboro",
/* pixels */
"                                                                ",
"11=1===X 111111111111111111111111+111=1=1111111111=1===X 1111111",
"=======X 1====================1==+=====================X 1======",
"=======X 1====================3==#=====================X 1======",
"==#41==X 1=#41================1==+===============#41===X 1#41===",
"==#11==X 1=#11================3==#===============#11===X 1#11#==",
"==##===X 1=##=================3==#===============##====X 1###===",
"=======X 1====================3==#=====================X 1=##===",
"1111111+X411111111111111111111411=111111111111111111111+X41$$111",
"=======X 1====================3==#=====================X 1=##===",
"1111111+X411111111111111111111411=111111111111111111111+X41$$111",
"1111111X 411111111111111111111411=111111111111111111111X 41$$111",
"1111111+X411111111111111111111411=111111111111111111111+X411$111",
"1111111+X411113sssss4s444444441111344444343333333111111+X41$1111",
"1111111+X41113s1111111111111111111111111111111111111111+X411$111",
"1111111+X4111s141111111111111111111111111111111141=1111+X41$1111",
"1111111XX3111s#11=#########=#=#=======1=1=11111#11=1111XX3111111",
"1111111+X4111s11=<;>>>>>>>>>>>>>>>>>>>>>>>>>>;<111=1111+X4111111",
"1111111XX3111s11#;piiuuuu,u,,,,>,>,>>>>>>>>>>>;111=1111XX3111111",
"1111111+X4111s11#>iu,,,,,,,,>,>,>>>>>>>>>>>>>>>311=1111+X4111111",
"1111111XX3111411#>u,,,,,,>,>,>>>>>>>>>>>>>>>>>>311=1111XX3111111",
"1111111+X3111s11#>u,,,>,gg88ddffyyrrgg99>>>>>>:311=1111+X3111111",
"1111111oX3111411#>u,,>,>gg88ddffyyrrgg99>>>>>>>311=1111oX3111111",
"1111111oX3111411#>,,>,>>99qq558822rr%%zz>>>>>>:311=1111oX3111111",
"1111111oo3111411#>u,,>>>99qq558822rr%%zz>>>>>>:411=1111oo3111111",
"1111111oX3111411#>,,>>>>88....ggww....xx>>>>>>:311=1111oX3111111",
"1111111Xo3111411#>,>>>>>88....ggww....xx>>>>>>:411=1111Xo3111111",
"1111111oX3111411=>>,>>>>66....77%%....tt>>>>>>:411=1111oX3111111",
"1111111XX3111411#>,>>>>>66....77%%....tt>>>>>>&411=1111XX3111111",
"1111111XX3111311=>>,>>>>tt88yy....llyy88>>>>>>:411=1111XX3111111",
"1111111X+3111411=>,>>>>>tt88yy....llyy88>>>>>>&411=1111X+3111111",
"1111111+X3111311=>>>>>>>ff99........qqjj>>>>>>&411#1111+X3111111",
"1111111X+3111311=>,>>>>>ff99........qqjj>>>>>>&s11=1111X+3111111",
"1111111+X3111311=>>>>>>>kk00........hh99>>>>>>&411#1111+X3111111",
"1111111X+31113111>>>>>>>kk00........hh99>>>>>>&s11#1111X+3111111",
"1111111++3111311=>>>>>>>77gg  aakk  88ee>>>>>:&411#1111++3111111",
"1111111++31113111>>>>>>>77gg  aakk  88ee>>>>>>&s11#1111+X3111111",
"4444141+X31113111>>>>>>>>>>>>>>>>>>>>>>>>>>>>:&s11#1111XX3111111",
"         31113111>>>>>>>>>>>>>>>>>>>>>>>>>:>:>&s11#1111XX       ",
"         31113111;>>>>>>>>>>>>>>>>>>>>>:>:>:>:*s11#1111X@       ",
"oX XoXXXX31113111<;>>>>:>::::::::::&:&&&&&&&&*-411#1111XXX XoXXX",
"@X @@oX@X31113111113131333333333343444444sssss4111#1111X@X @@oX@",
"@X @@oo@o31113141111111111111111111111111111111141#1111X@X @@oo@",
"@X @@oo@X31111#11111111111111111111111111111111#1#=1111X@X @@oo@",
"@oX@@oo@o111111==========#=#=####################=11111X@oX@@oo@",
"@X @@oo@o3111111111111111111111111111111111111111111111 @X @@oo@",
"@oX@@oo@o3111111111111111111111111111111111111111111111X@oX@@oo@",
"@o @@oo@o4111111111111111111111111111111111111111111111 @o @@oo@",
"@oX@@oo@o4444444414141444444444444444444414144444414111 @oX@@oo@",
"@oX@@oo@o                                               @oX@@oo@",
"@XX@@oo@oX XoXXXoX XoXXXoX XoXXXoX XoXXXoX XoXXXoX XoXXX@XX@@oo@",
"@oX@@oo@@X @@oX@@X @@oX@@X @@oX@@X @@oX@@X @@oX@@X @@oX@@oX@@oo@",
"oX @ooo@@X @@oo@@X @@oo@@X @@oo@@X @@oo@@X @@oo@@X @@oo@oX @ooo@",
"@XXo@oo@@X @@oo@@X @@oo@@X @@oo@@X @@oo@@X @@oo@@X @@oo@@XXo@oo@",
"oX @ooX@oX @ooX@oX @ooX@oX @ooX@oX @ooX@oX @ooX@oX @ooX@oX @ooX@",
"o  ooX oo  ooX oo  ooX oo  ooX oo  ooX oo  ooX oo  ooX oo  ooX o",
"4444444443444434343434333333434343444444444444444444444443444434",
"11111111=1111111111111111=1111111111111=1=111111=1=11111=1111111",
"1=11111=111111111111111==111111111111111=11111111=11111=11111111",
"=114=1111114=1111114=11=1114=1111114=11=1114=111=114=1111114=111",
"11#==11111#==11111#==1=1=1#==11111#==11111#==11=11#==11111#==11=",
"=1##111111##111111##111=11##111111##111111##11==11##111111##11=1",
"1111111111111111111111=1111111111111=111111111=11111111111111=1=",
"#OOOOOO#O#O#######O#O#X#X#XXXX#X########O#O##O#O#OOOOOO#O#O#####"
};
