/* XPM */
static char *_117df24349d4482988325177db0a8a5QPVwIYIeZtdLWInT[] = {
/* columns rows colors chars-per-pixel */
"64 64 28 1 ",
"  c black",
". c #141413",
"X c #1C1C1B",
"o c #2F1C17",
"O c #28221F",
"+ c #292A28",
"@ c #382B2F",
"# c #4B3F38",
"$ c #040656",
"% c #232D46",
"& c #383F40",
"* c #373F4B",
"= c #243C5B",
"- c #070872",
"; c #08257B",
": c #0B3A7B",
"> c #35464F",
", c #0C6B66",
"< c #464D4F",
"1 c #536265",
"2 c #62797E",
"3 c #115B82",
"4 c #19948E",
"5 c #1A95A7",
"6 c #2CB8B3",
"7 c #2CE1AB",
"8 c #889C9E",
"9 c #F5E49C",
/* pixels */
"                                                                ",
"<<&<&&&. <<<<<<<<<<<<<<<<<<<<<<<<O<<<&<&<<<<<<<<<<&<&&&. <<<<<<<",
"&&&&&&&. <&&&&&&&&&&&&&&&&&&&&<&&O&&&&&&&&&&&&&&&&&&&&&. <&&&&&&",
"&&&&&&&. <&&&&&&&&&&&&&&&&&&&&1&&@&&&&&&&&&&&&&&&&&&&&&. <&&&&&&",
"&&@2<&&. <&@2<&&&&&&&&&&&&&&&&<&&O&&&&&&&&&&&&&&&@2<&&&. <@2<&&&",
"&&@<<&&. <&@<<&&&&&&&&&&&&&&&&1&&@&&&&&&&&&&&&&&&@<<&&&. <@<<@&&",
"&&@@&&&. <&@@&&&&&&&&&&&&&&&&&1&&@&&&&&&&&&&&&&&&@@&&&&. <@@@&&&",
"&&&&&&&. <&&&&&&&&&&&&&&&&&&&&1&&@&&&&&&&&&&&&&&&&&&&&&. <&@@&&&",
"<<<<<<<O.2<<<<<<<<<<<<<<<<<<<<2<<&<<<<<<<<<<<<<<<<<<<<<O.2<##<<<",
"&&&&&&&. <&&&&&&&&&&&&&&&&&&&&1&&@&&&&&&&&&&&&&&&&&&&&&. <&@@&&&",
"<<<<<<<O.2<<<<<<<<<<<<<<<<<<<<2<<&<<<<<<<<<<<<<<<<<<<<<O.2<##<<<",
"<<<<<<<. 2<<<<<<<<<<<<<<<<<<<<2<<&<<<<<<<<<<<<<<<<<<<<<. 2<##<<<",
"<<<<<<<O.2<<<<<<<<<<<<<<<<<<<<2<<&<<<<<<<<<<<<<<<<<<<<<O.2<<#<<<",
"<<<<<<<O.2<<<<1888882822222222<<<<122222121111111<<<<<<O.2<#<<<<",
"<<<<<<<O.2<<<18<<<<<<<<<<<<<<<<<<<<<<<<<<<<<<<<<<<<<<<<O.2<<#<<<",
"<<<<<<<O.2<<<8<2<<<<<<<<<<<<<<<<<<<<<<<<<<<<<<<<2<&<<<<O.2<#<<<<",
"<<<<<<<..1<<<8@<<&@@@@@@@@@&@&@&&&&&&&<&<&<<<<<@<<&<<<<..1<<<<<<",
"<<<<<<<O.2<<<8<<&>=;;;;;;;;;;;;;;;;;;;;;;;;;;=><<<&<<<<O.2<<<<<<",
"<<<<<<<..1<<<8<<@=7553333:3::::;:;:;;;;;;;;;;;=<<<&<<<<..1<<<<<<",
"<<<<<<<O.2<<<8<<@;53::::::::;:;:;;;;;;;;;;;;;;;1<<&<<<<O.2<<<<<<",
"<<<<<<<..1<<<2<<@;3::::::;:;:;;;;;;;;;;;;;;;;;;1<<&<<<<..1<<<<<<",
"<<<<<<<O.1<<<8<<@;3:::;:;:;;;;;;;;;;9;9;;;;;;;-1<<&<<<<O.1<<<<<<",
"<<<<<<<X.1<<<2<<@;3::;:;9;;;;;;;;;;;;9;;;;;;;;;1<<&<<<<X.1<<<<<<",
"<<<<<<<X.1<<<2<<@;::;:;9;9;6666664,;9;9;;;;;;;-1<<&<<<<X.1<<<<<<",
"<<<<<<<XX1<<<2<<@;3::;;;9;;66666664,;;;;;;;;;;-2<<&<<<<XX1<<<<<<",
"<<<<<<<X.1<<<2<<@;::;;;;;;;666666664,;;;;;;;;;-1<<&<<<<X.1<<<<<<",
"<<<<<<<.X1<<<2<<@;:;;;;;;;;6664,66664,;;;;;;;;-2<<&<<<<.X1<<<<<<",
"<<<<<<<X.1<<<2<<&;;:;;;;;;;6664,;6664,;;;;;;;;-2<<&<<<<X.1<<<<<<",
"<<<<<<<..1<<<2<<@;:;;;;;;;;6664,;6664,;;9;;;;;$2<<&<<<<..1<<<<<<",
"<<<<<<<..1<<<1<<&;;:;;;;;;;6664,;6664,;9;9;;;;-2<<&<<<<..1<<<<<<",
"<<<<<<<.O1<<<2<<&;:;;;;;;;;6664,;6664,;;9;;;;;$2<<&<<<<.O1<<<<<<",
"<<<<<<<O.1<<<1<<&;;;;;;;;;;6664,66664,;;;;;;;;$2<<@<<<<O.1<<<<<<",
"<<<<<<<.O1<<<1<<&;:;;;;;;;;666666664,;;;;;;;;;$8<<&<<<<.O1<<<<<<",
"<<<<<<<O.1<<<1<<&;;;;;;;;;966666664,;;;;;;;;;;$2<<@<<<<O.1<<<<<<",
"<<<<<<<.O1<<<1<<<;;;;;;;;999666664,;;;;;;;;;;;$8<<@<<<<.O1<<<<<<",
"<<<<<<<OO1<<<1<<&;;;;;;;;;9;;;;;;;;;;9;;;;;;;-$2<<@<<<<OO1<<<<<<",
"<<<<<<<OO1<<<1<<<;;;;;;;;;;;;;;;;;;;999;;;;;;;$8<<@<<<<O.1<<<<<<",
"2222<2<O.1<<<1<<<;;;;;;;;;;;;;;;;;;;;9;;;;;;;-$8<<@<<<<..1<<<<<<",
"         1<<<1<<<;;;;;;;;;;;;;;;;;;;;;;;;;-;-;$8<<@<<<<..       ",
"         1<<<1<<<=;;;;;;;;;;;;;;;;;;;;;-;-;-;-%8<<@<<<<.+       ",
"X. .X....1<<<1<<<>=;;;;-;----------$-$$$$$$$$%*2<<@<<<<... .X...",
"+. ++X.+.1<<<1<<<<<1<1<111111111121222222888882<<<@<<<<.+. ++X.+",
"+. ++XX+X1<<<1<2<<<<<<<<<<<<<<<<<<<<<<<<<<<<<<<<2<@<<<<.+. ++XX+",
"+. ++XX+.1<<<<@<<<<<<<<<<<<<<<<<<<<<<<<<<<<<<<<@<@&<<<<.+. ++XX+",
"+X.++XX+X<<<<<<&&&&&&&&&&@&@&@@@@@@@@@@@@@@@@@@@@&<<<<<.+X.++XX+",
"+. ++XX+X1<<<<<<<<<<<<<<<<<<<<<<<<<<<<<<<<<<<<<<<<<<<<< +. ++XX+",
"+X.++XX+X1<<<<<<<<<<<<<<<<<<<<<<<<<<<<<<<<<<<<<<<<<<<<<.+X.++XX+",
"+X ++XX+X2<<<<<<<<<<<<<<<<<<<<<<<<<<<<<<<<<<<<<<<<<<<<< +X ++XX+",
"+X.++XX+X22222222<2<2<2222222222222222222<2<222222<2<<< +X.++XX+",
"+X.++XX+X                                               +X.++XX+",
"+..++XX+X. .X...X. .X...X. .X...X. .X...X. .X...X. .X...+..++XX+",
"+X.++XX++. ++X.++. ++X.++. ++X.++. ++X.++. ++X.++. ++X.++X.++XX+",
"X. +XXX++. ++XX++. ++XX++. ++XX++. ++XX++. ++XX++. ++XX+X. +XXX+",
"+..X+XX++. ++XX++. ++XX++. ++XX++. ++XX++. ++XX++. ++XX++..X+XX+",
"X. +XX.+X. +XX.+X. +XX.+X. +XX.+X. +XX.+X. +XX.+X. +XX.+X. +XX.+",
"X  XX. XX  XX. XX  XX. XX  XX. XX  XX. XX  XX. XX  XX. XX  XX. X",
"2222222221222212121212111111212121222222222222222222222221222212",
"<<<<<<<<&<<<<<<<<<<<<<<<<&<<<<<<<<<<<<<&<&<<<<<<&<&<<<<<&<<<<<<<",
"<&<<<<<&<<<<<<<<<<<<<<<&&<<<<<<<<<<<<<<<&<<<<<<<<&<<<<<&<<<<<<<<",
"&<<2&<<<<<<2&<<<<<<2&<<&<<<2&<<<<<<2&<<&<<<2&<<<&<<2&<<<<<<2&<<<",
"<<@&&<<<<<@&&<<<<<@&&<&<&<@&&<<<<<@&&<<<<<@&&<<&<<@&&<<<<<@&&<<&",
"&<@@<<<<<<@@<<<<<<@@<<<&<<@@<<<<<<@@<<<<<<@@<<&&<<@@<<<<<<@@<<&<",
"<<<<<<<<<<<<<<<<<<<<<<&<<<<<<<<<<<<<&<<<<<<<<<&<<<<<<<<<<<<<<&<&",
"@oooooo@o@o@@@@@@@o@o@.@.@....@.@@@@@@@@o@o@@o@o@oooooo@o@o@@@@@"
};
