/* XPM */
static char *_7b94001e54d4f8c824b05231e41817468888rr1UUvice9P[] = {
/* columns rows colors chars-per-pixel */
"64 64 32 1 ",
"  c black",
". c #141413",
"X c #1C1C1B",
"o c #2F1C17",
"O c #28221F",
"+ c #292A28",
"@ c #382B2F",
"# c #700124",
"$ c #4B3F38",
"% c #733920",
"& c #040656",
"* c #232D46",
"= c #383F40",
"- c #373F4B",
"; c #243C5B",
": c #070872",
"> c #08257B",
", c #0B3A7B",
"< c #35464F",
"1 c #464D4F",
"2 c #536265",
"3 c #62797E",
"4 c #ED1C24",
"5 c #B53F45",
"6 c #F07D4F",
"7 c #FFF200",
"8 c #E5AA7A",
"9 c #115B82",
"0 c #1A95A7",
"q c #2CE1AB",
"w c #889C9E",
"e c white",
/* pixels */
"                                                                ",
"11=1===. 111111111111111111111111O111=1=1111111111=1===. 1111111",
"=======. 1====================1==O=====================. 1======",
"=======. 1====================2==@=====================. 1======",
"==@31==. 1=@31================1==O===============@31===. 1@31===",
"==@11==. 1=@11================2==@===============@11===. 1@11@==",
"==@@===. 1=@@=================2==@===============@@====. 1@@@===",
"=======. 1====================2==@=====================. 1=@@===",
"1111111O.311111111111111111111311=111111111111111111111O.31$$111",
"=======. 1====================2==@=====================. 1=@@===",
"1111111O.311111111111111111111311=111111111111111111111O.31$$111",
"1111111. 311111111111111111111311=111111111111111111111. 31$$111",
"1111111O.311111111111111111111311=111111111111111111111O.311$111",
"1111111O.311112wwwww3w333333331111233333232222222111111O.31$1111",
"1111111O.31112w1111111111111111111111111111111111111111O.311$111",
"1111111O.3111w131111111111111111111111111111111131=1111O.31$1111",
"1111111..2111w@11=@@@@@@@@@=@=@=======1=1=11111@11=1111..2111111",
"1111111O.3111w11=<;>>>>>>>>>>>>>>>>>>>>>>>>>>;<111=1111O.3111111",
"1111111..2111w11@;q009999,9,,,,>,>,>>>>>>>>>>>;111=1111..2111111",
"1111111O.3111w11@>09,,,,,,,,>,>,>>>>>>>>>>>>>>>211=1111O.3111111",
"1111111..2111311@>9,,,,,,>,>,>>>>>>>>>>>>>>>>>>211=1111..2111111",
"1111111O.2111w11@>9,,,>,>,>>>>>>>>>>>>>>>>>>>>:211=1111O.2111111",
"1111111X.2111311@>9,,>,>>>>>>>>>>>>>>>>>>>>>>>>211=1111X.2111111",
"1111111X.2111311@>,,>,>>>>>>>>>#####>>>>>>>>>>:211=1111X.2111111",
"1111111XX2111311@>9,,>>>>>>>>##44474#>>>>>>>>>:311=1111XX2111111",
"1111111X.2111311@>,,>>>>>>>>#445577e#>>>>>>>>>:211=1111X.2111111",
"1111111.X2111311@>,>>>>>>>>#5455      >>>>>>>>:311=1111.X2111111",
"1111111X.2111311=>>,>>>>>>#555         >>>>>>>:311=1111X.2111111",
"1111111..2111311@>,>>>>>>>#8   6 6 6>>>>>>>>>>&311=1111..2111111",
"1111111..2111211=>>,>>>>>#8%8 68 8 8%%>>>>>>>>:311=1111..2111111",
"1111111.O2111311=>,>>>>>>#6%8  8888888%>>>>>>>&311=1111.O2111111",
"1111111O.2111211=>>>>>>>># 68 88 66666%>>>>>>>&311@1111O.2111111",
"1111111.O2111211=>,>>>>>>>  668       >>>>>>>>&w11=1111.O2111111",
"1111111O.2111211=>>>>>>>>>> >>666    >>>>>>>>>&311@1111O.2111111",
"1111111.O21112111>>>>>>>>>>>>>>>>>>>>>>>>>>>>>&w11@1111.O2111111",
"1111111OO2111211=>>>>>>>>>>>>>>>>>>>>>>>>>>>>:&311@1111OO2111111",
"1111111OO21112111>>>>>>>>>>>>>>>>>>>>>>>>>>>>>&w11@1111O.2111111",
"3333131O.21112111>>>>>>>>>>>>>>>>>>>>>>>>>>>>:&w11@1111..2111111",
"         21112111>>>>>>>>>>>>>>>>>>>>>>>>>:>:>&w11@1111..       ",
"         21112111;>>>>>>>>>>>>>>>>>>>>>:>:>:>:*w11@1111.+       ",
"X. .X....21112111<;>>>>:>::::::::::&:&&&&&&&&*-311@1111... .X...",
"+. ++X.+.21112111112121222222222232333333wwwww3111@1111.+. ++X.+",
"+. ++XX+X21112131111111111111111111111111111111131@1111.+. ++XX+",
"+. ++XX+.21111@11111111111111111111111111111111@1@=1111.+. ++XX+",
"+X.++XX+X111111==========@=@=@@@@@@@@@@@@@@@@@@@@=11111.+X.++XX+",
"+. ++XX+X2111111111111111111111111111111111111111111111 +. ++XX+",
"+X.++XX+X2111111111111111111111111111111111111111111111.+X.++XX+",
"+X ++XX+X3111111111111111111111111111111111111111111111 +X ++XX+",
"+X.++XX+X3333333313131333333333333333333313133333313111 +X.++XX+",
"+X.++XX+X                                               +X.++XX+",
"+..++XX+X. .X...X. .X...X. .X...X. .X...X. .X...X. .X...+..++XX+",
"+X.++XX++. ++X.++. ++X.++. ++X.++. ++X.++. ++X.++. ++X.++X.++XX+",
"X. +XXX++. ++XX++. ++XX++. ++XX++. ++XX++. ++XX++. ++XX+X. +XXX+",
"+..X+XX++. ++XX++. ++XX++. ++XX++. ++XX++. ++XX++. ++XX++..X+XX+",
"X. +XX.+X. +XX.+X. +XX.+X. +XX.+X. +XX.+X. +XX.+X. +XX.+X. +XX.+",
"X  XX. XX  XX. XX  XX. XX  XX. XX  XX. XX  XX. XX  XX. XX  XX. X",
"3333333332333323232323222222323232333333333333333333333332333323",
"11111111=1111111111111111=1111111111111=1=111111=1=11111=1111111",
"1=11111=111111111111111==111111111111111=11111111=11111=11111111",
"=113=1111113=1111113=11=1113=1111113=11=1113=111=113=1111113=111",
"11@==11111@==11111@==1=1=1@==11111@==11111@==11=11@==11111@==11=",
"=1@@111111@@111111@@111=11@@111111@@111111@@11==11@@111111@@11=1",
"1111111111111111111111=1111111111111=111111111=11111111111111=1=",
"@oooooo@o@o@@@@@@@o@o@.@.@....@.@@@@@@@@o@o@@o@o@oooooo@o@o@@@@@"
};
