/* XPM */
static char *_86fd4f996f64633df678320e78779f4SVHm9bR5uaU2DZUh[] = {
/* columns rows colors chars-per-pixel */
"64 64 29 1 ",
"  c black",
". c #141413",
"X c #1C1C1B",
"o c #2F1C17",
"O c #28221F",
"+ c #292A28",
"@ c #382B2F",
"# c #4B3F38",
"$ c #040656",
"% c #232D46",
"& c #383F40",
"* c #373F4B",
"= c #243C5B",
"- c #070872",
"; c #08257B",
": c #0B3A7B",
"> c #35464F",
", c #464D4F",
"< c #536265",
"1 c #62797E",
"2 c #ED1C24",
"3 c #22B14C",
"4 c #FFF200",
"5 c #115B82",
"6 c #4D6DF3",
"7 c #1A95A7",
"8 c #2CE1AB",
"9 c #889C9E",
"0 c #B4B4B4",
/* pixels */
"                                                                ",
",,&,&&&. ,,,,,,,,,,,,,,,,,,,,,,,,O,,,&,&,,,,,,,,,,&,&&&. ,,,,,,,",
"&&&&&&&. ,&&&&&&&&&&&&&&&&&&&&,&&O&&&&&&&&&&&&&&&&&&&&&. ,&&&&&&",
"&&&&&&&. ,&&&&&&&&&&&&&&&&&&&&<&&@&&&&&&&&&&&&&&&&&&&&&. ,&&&&&&",
"&&@1,&&. ,&@1,&&&&&&&&&&&&&&&&,&&O&&&&&&&&&&&&&&&@1,&&&. ,@1,&&&",
"&&@,,&&. ,&@,,&&&&&&&&&&&&&&&&<&&@&&&&&&&&&&&&&&&@,,&&&. ,@,,@&&",
"&&@@&&&. ,&@@&&&&&&&&&&&&&&&&&<&&@&&&&&&&&&&&&&&&@@&&&&. ,@@@&&&",
"&&&&&&&. ,&&&&&&&&&&&&&&&&&&&&<&&@&&&&&&&&&&&&&&&&&&&&&. ,&@@&&&",
",,,,,,,O.1,,,,,,,,,,,,,,,,,,,,1,,&,,,,,,,,,,,,,,,,,,,,,O.1,##,,,",
"&&&&&&&. ,&&&&&&&&&&&&&&&&&&&&<&&@&&&&&&&&&&&&&&&&&&&&&. ,&@@&&&",
",,,,,,,O.1,,,,,,,,,,,,,,,,,,,,1,,&,,,,,,,,,,,,,,,,,,,,,O.1,##,,,",
",,,,,,,. 1,,,,,,,,,,,,,,,,,,,,1,,&,,,,,,,,,,,,,,,,,,,,,. 1,##,,,",
",,,,,,,O.1,,,,,,,,,,,,,,,,,,,,1,,&,,,,,,,,,,,,,,,,,,,,,O.1,,#,,,",
",,,,,,,O.1,,,,<999991911111111,,,,<11111<1<<<<<<<,,,,,,O.1,#,,,,",
",,,,,,,O.1,,,<9,,,,,,,,,,,,,,,,,,,,,,,,,,,,,,,,,,,,,,,,O.1,,#,,,",
",,,,,,,O.1,,,9,1,,,,,,,,,,,,,,,,,,,,,,,,,,,,,,,,1,&,,,,O.1,#,,,,",
",,,,,,,..<,,,9@,,&@@@@@@@@@&@&@&&&&&&&,&,&,,,,,@,,&,,,,..<,,,,,,",
",,,,,,,O.1,,,9,,&>=;;;;;;;;;;;;;;;;;;;;;;;;;;=>,,,&,,,,O.1,,,,,,",
",,,,,,,..<,,,9,,@=8775555:5::::;:;:;;;;;;;;;;;=,,,&,,,,..<,,,,,,",
",,,,,,,O.1,,,9,,@;75::::::::;:;:;;;;;;;;;;;;;;;<,,&,,,,O.1,,,,,,",
",,,,,,,..<,,,1,,@;5::::::;:;:;;;;;;;;;;;;;;;;;;<,,&,,,,..<,,,,,,",
",,,,,,,O.<,,,9,,@;5:::;:;:;;;;;   ;;;;;;;;;;;;-<,,&,,,,O.<,,,,,,",
",,,,,,,X.<,,,1,,@;5::;:;;;;;;; 6 4 ;;;;;;;;;;;;<,,&,,,,X.<,,,,,,",
",,,,,,,X.<,,,1,,@;::;:;;;;;;; 66 44 ;;;;;2;;;;-<,,&,,,,X.<,,,,,,",
",,,,,,,XX<,,,1,,@;5::;;;;;;; 666 444 ;;;222;;;-1,,&,,,,XX<,,,,,,",
",,,,,,,X.<,,,1,,@;::;;;;;2;; 66 3 44 ;;22222;;-<,,&,,,,X.<,,,,,,",
",,,,,,,.X<,,,1,,@;:;;;;;222; 6 333 4 ;2220222;-1,,&,,,,.X<,,,,,,",
",,,,,,,X.<,,,1,,&;;:;;;22222; 33333 ;2220;022;-1,,&,,,,X.<,,,,,,",
",,,,,,,..<,,,1,,@;:;;;2220022; 333 ;2200;;;22;$1,,&,,,,..<,,,,,,",
",,,,,,,..<,,,<,,&;;:;2220;;222; 3 ;220;;;;220;-1,,&,,,,..<,,,,,,",
",,,,,,,.O<,,,1,,&;:;;020;;22222; ;220;;;;222;;$1,,&,,,,.O<,,,,,,",
",,,,,,,O.<,,,<,,&;;;;;0;;2220022;;222;;;2220;;$1,,@,,,,O.<,,,,,,",
",,,,,,,.O<,,,<,,&;:;;;;;;220;;22;;022222220;;;$9,,&,,,,.O<,,,,,,",
",,,,,,,O.<,,,<,,&;;;;;;;;00;;220;;;0222200;;;;$1,,@,,,,O.<,,,,,,",
",,,,,,,.O<,,,<,,,;;;;;;;;;;;220;;;;;0000;;;;;;$9,,@,,,,.O<,,,,,,",
",,,,,,,OO<,,,<,,&;;;;;;;;;;220;;;;;;;;;;;;;;;-$1,,@,,,,OO<,,,,,,",
",,,,,,,OO<,,,<,,,;;;;;;;;;;00;;;;;;;;;;;;;;;;;$9,,@,,,,O.<,,,,,,",
"1111,1,O.<,,,<,,,;;;;;;;;;;;;;;;;;;;;;;;;;;;;-$9,,@,,,,..<,,,,,,",
"         <,,,<,,,;;;;;;;;;;;;;;;;;;;;;;;;;-;-;$9,,@,,,,..       ",
"         <,,,<,,,=;;;;;;;;;;;;;;;;;;;;;-;-;-;-%9,,@,,,,.+       ",
"X. .X....<,,,<,,,>=;;;;-;----------$-$$$$$$$$%*1,,@,,,,... .X...",
"+. ++X.+.<,,,<,,,,,<,<,<<<<<<<<<<1<111111999991,,,@,,,,.+. ++X.+",
"+. ++XX+X<,,,<,1,,,,,,,,,,,,,,,,,,,,,,,,,,,,,,,,1,@,,,,.+. ++XX+",
"+. ++XX+.<,,,,@,,,,,,,,,,,,,,,,,,,,,,,,,,,,,,,,@,@&,,,,.+. ++XX+",
"+X.++XX+X,,,,,,&&&&&&&&&&@&@&@@@@@@@@@@@@@@@@@@@@&,,,,,.+X.++XX+",
"+. ++XX+X<,,,,,,,,,,,,,,,,,,,,,,,,,,,,,,,,,,,,,,,,,,,,, +. ++XX+",
"+X.++XX+X<,,,,,,,,,,,,,,,,,,,,,,,,,,,,,,,,,,,,,,,,,,,,,.+X.++XX+",
"+X ++XX+X1,,,,,,,,,,,,,,,,,,,,,,,,,,,,,,,,,,,,,,,,,,,,, +X ++XX+",
"+X.++XX+X11111111,1,1,1111111111111111111,1,111111,1,,, +X.++XX+",
"+X.++XX+X                                               +X.++XX+",
"+..++XX+X. .X...X. .X...X. .X...X. .X...X. .X...X. .X...+..++XX+",
"+X.++XX++. ++X.++. ++X.++. ++X.++. ++X.++. ++X.++. ++X.++X.++XX+",
"X. +XXX++. ++XX++. ++XX++. ++XX++. ++XX++. ++XX++. ++XX+X. +XXX+",
"+..X+XX++. ++XX++. ++XX++. ++XX++. ++XX++. ++XX++. ++XX++..X+XX+",
"X. +XX.+X. +XX.+X. +XX.+X. +XX.+X. +XX.+X. +XX.+X. +XX.+X. +XX.+",
"X  XX. XX  XX. XX  XX. XX  XX. XX  XX. XX  XX. XX  XX. XX  XX. X",
"111111111<1111<1<1<1<1<<<<<<1<1<1<11111111111111111111111<1111<1",
",,,,,,,,&,,,,,,,,,,,,,,,,&,,,,,,,,,,,,,&,&,,,,,,&,&,,,,,&,,,,,,,",
",&,,,,,&,,,,,,,,,,,,,,,&&,,,,,,,,,,,,,,,&,,,,,,,,&,,,,,&,,,,,,,,",
"&,,1&,,,,,,1&,,,,,,1&,,&,,,1&,,,,,,1&,,&,,,1&,,,&,,1&,,,,,,1&,,,",
",,@&&,,,,,@&&,,,,,@&&,&,&,@&&,,,,,@&&,,,,,@&&,,&,,@&&,,,,,@&&,,&",
"&,@@,,,,,,@@,,,,,,@@,,,&,,@@,,,,,,@@,,,,,,@@,,&&,,@@,,,,,,@@,,&,",
",,,,,,,,,,,,,,,,,,,,,,&,,,,,,,,,,,,,&,,,,,,,,,&,,,,,,,,,,,,,,&,&",
"@oooooo@o@o@@@@@@@o@o@.@.@....@.@@@@@@@@o@o@@o@o@oooooo@o@o@@@@@"
};
