/* XPM */
static char *_7935b6d61aa436a9560a082d577ecfeqnN7qpupkJ8j3UQu[] = {
/* columns rows colors chars-per-pixel */
"64 64 46 1 ",
"  c black",
". c #1D0000",
"X c #0D1A1B",
"o c #141413",
"O c #1C1C1B",
"+ c #2F1C17",
"@ c #28221F",
"# c #041139",
"$ c #292A28",
"% c #382B2F",
"& c #610000",
"* c #6B0000",
"= c #790000",
"- c #7D0000",
"; c #4B3F38",
": c #040656",
"> c #232D46",
", c #383F40",
"< c #373F4B",
"1 c #243C5B",
"2 c #070872",
"3 c #08257B",
"4 c #0B3A7B",
"5 c #35464F",
"6 c #285254",
"7 c #2D5D5F",
"8 c #3B7B7E",
"9 c #464D4F",
"0 c #536265",
"q c #62797E",
"w c #AB0000",
"e c #B50000",
"r c #BB0000",
"t c #C10000",
"y c #C70000",
"u c #DA0000",
"i c #E80000",
"p c #115B82",
"a c #1A95A7",
"s c #4C9DA1",
"d c #56B1B6",
"f c #2CE1AB",
"g c #71EBF0",
"h c gray52",
"j c #889C9E",
"k c white",
/* pixels */
"                                                                ",
"99,9,,,o 999999999999999999999999@999,9,9999999999,9,,,o 9999999",
",,,,,,,o 9,,,,,,,,,,,,,,,,,,,,9,,@,,,,,,,,,,,,,,,,,,,,,o 9,,,,,,",
",,,,,,,o 9,,,,,,,,,,,,,,,,,,,,0,,%,,,,,,,,,,,,,,,,,,,,,o 9,,,,,,",
",,%q9,,o 9,%q9,,,,,,,,,,,,,,,,9,,@,,,,,,,,,,,,,,,%q9,,,o 9%q9,,,",
",,%99,,o 9,%99,,,,,,,,,,,,,,,,0,,%,,,,,,,,,,,,,,,%99,,,o 9%99%,,",
",,%%,,,o 9,%%,,,,,,,,,,,,,,,,,0,,%,,,,,,,,,,,,,,,%%,,,,o 9%%%,,,",
",,,,,,,o 9,,,,,,,,,,,,,,,,,,,,0,,%,,,,,,,,,,,,,,,,,,,,,o 9,%%,,,",
"9999999@oq99999999999999999999q99,999999999999999999999@oq9;;999",
",,,,,,,o 9,,,,,,,,,,,,,,,,,,,,0,,%,,,,,,,,,,,,,,,,,,,,,o 9,%%,,,",
"9999999@oq99999999999999999999q99,999999999999999999999@oq9;;999",
"9999999o q99999999999999999999q99,999999999999999999999o q9;;999",
"9999999@oq99999999999999999999q99,999999999999999999999@oq99;999",
"9999999@oq99990jjjjjqjqqqqqqqq99990qqqqq0q0000000999999@oq9;9999",
"9999999@oq9990j9999999999999999999999999999999999999999@oq99;999",
"9999999@oq999j9q99999999999999999999999999999999q9,9999@oq9;9999",
"9999999oo0999j%99,%%%%%%%%%,%,%,,,,,,,9,9,99999%99,9999oo0999999",
"9999999@oq999j99,513333333333333333333333333315999,9999@oq999999",
"9999999oo0999j99%1faapppp4p44443434333333333331999,9999oo0999999",
"9999999@oq999j99%3ap444444443     3333333333333099,9999@oq999999",
"9999999oo0999q99%3p44444434  iiiii  33333333333099,9999oo0999999",
"9999999@o0999j99%3p4443434 &iiiiiii& 3333333332099,9999@o0999999",
"9999999Oo0999q99%3p4434333 iiii      3333333333099,9999Oo0999999",
"9999999Oo0999q99%344343   =iii 678hhh 333333332099,9999Oo0999999",
"9999999OO0999q99%3p443 ii iiiiXdgggkkg 33333332q99,9999OO0999999",
"9999999Oo0999q99%34433 ii wiiiXsdggggg 33333332099,9999Oo0999999",
"9999999oO0999q99%34333 iw wiiiXsssgggs 33333332q99,9999oO0999999",
"9999999Oo0999q99,33433 ww wiiiX7ssssss 33333332q99,9999Oo0999999",
"9999999oo0999q99%34333 ww wiiit       33333333:q99,9999oo0999999",
"9999999oo0999099,33433 ww wwiiiiiiiii 333333332q99,9999oo0999999",
"9999999o@0999q99,34333 ww wwiiiiiiiii 33333333:q99,9999o@0999999",
"9999999@o0999099,33333 ww wwiiiiiiiii 33333333:q99%9999@o0999999",
"9999999o@0999099,34333 ww wwwiiiiiii    333333:j99,9999o@0999999",
"9999999@o0999099,33333 ww wwwyiiy*yiiii-#33333:q99%9999@o0999999",
"9999999o@09990999333333   wwwweiii wwiiw 33333:j99%9999o@0999999",
"9999999@@0999099,33333333 wwwwwuiii wwww 33332:q99%9999@@0999999",
"9999999@@09990999333333333  wwwwriw wwww 33333:j99%9999@o0999999",
"qqqq9q9@o099909993333333333  wwwwww     333332:j99%9999oo0999999",
"         09990999333333333333 .wwww 3333332323:j99%9999oo       ",
"         0999099913333333333333    33332323232>j99%9999o$       ",
"Oo oOoooo09990999513333232222222222:2::::::::><q99%9999ooo oOooo",
"$o $$Oo$o099909999909090000000000q0qqqqqqjjjjjq999%9999o$o $$Oo$",
"$o $$OO$O099909q99999999999999999999999999999999q9%9999o$o $$OO$",
"$o $$OO$o09999%99999999999999999999999999999999%9%,9999o$o $$OO$",
"$Oo$$OO$O999999,,,,,,,,,,%,%,%%%%%%%%%%%%%%%%%%%%,99999o$Oo$$OO$",
"$o $$OO$O0999999999999999999999999999999999999999999999 $o $$OO$",
"$Oo$$OO$O0999999999999999999999999999999999999999999999o$Oo$$OO$",
"$O $$OO$Oq999999999999999999999999999999999999999999999 $O $$OO$",
"$Oo$$OO$Oqqqqqqqq9q9q9qqqqqqqqqqqqqqqqqqq9q9qqqqqq9q999 $Oo$$OO$",
"$Oo$$OO$O                                               $Oo$$OO$",
"$oo$$OO$Oo oOoooOo oOoooOo oOoooOo oOoooOo oOoooOo oOooo$oo$$OO$",
"$Oo$$OO$$o $$Oo$$o $$Oo$$o $$Oo$$o $$Oo$$o $$Oo$$o $$Oo$$Oo$$OO$",
"Oo $OOO$$o $$OO$$o $$OO$$o $$OO$$o $$OO$$o $$OO$$o $$OO$Oo $OOO$",
"$ooO$OO$$o $$OO$$o $$OO$$o $$OO$$o $$OO$$o $$OO$$o $$OO$$ooO$OO$",
"Oo $OOo$Oo $OOo$Oo $OOo$Oo $OOo$Oo $OOo$Oo $OOo$Oo $OOo$Oo $OOo$",
"O  OOo OO  OOo OO  OOo OO  OOo OO  OOo OO  OOo OO  OOo OO  OOo O",
"qqqqqqqqq0qqqq0q0q0q0q000000q0q0q0qqqqqqqqqqqqqqqqqqqqqqq0qqqq0q",
"99999999,9999999999999999,9999999999999,9,999999,9,99999,9999999",
"9,99999,999999999999999,,999999999999999,99999999,99999,99999999",
",99q,999999q,999999q,99,999q,999999q,99,999q,999,99q,999999q,999",
"99%,,99999%,,99999%,,9,9,9%,,99999%,,99999%,,99,99%,,99999%,,99,",
",9%%999999%%999999%%999,99%%999999%%999999%%99,,99%%999999%%99,9",
"9999999999999999999999,9999999999999,999999999,99999999999999,9,",
"%++++++%+%+%%%%%%%+%+%o%o%oooo%o%%%%%%%%+%+%%+%+%++++++%+%+%%%%%"
};
